<svg width="70" height="70" viewBox="0 0 70 70" fill="none" xmlns="http://www.w3.org/2000/svg">
  <path d="M35 70C54.33 70 70 54.33 70 35C70 15.67 54.33 0 35 0C15.67 0 0 15.67 0 35C0 54.33 15.67 70 35 70Z" fill="#FF5000"/>
  <path fill-rule="evenodd" clip-rule="evenodd" d="M33.1953 22.5478L20.0453 44.1854L25.2752 41.1659C25.2876 41.1442 25.3004 41.1225 25.3136 41.101L33.1953 28.2686V22.5478ZM47.9508 47.1677H22.536L27.2721 44.4334H43.0365C43.0931 44.4334 43.149 44.4313 43.2041 44.4273L47.9508 47.1677ZM50.0215 43.943L37.0234 22.5553V28.2761L44.7914 40.9234L50.0215 43.943ZM36.9765 15.107C36.1244 13.7051 34.0897 13.7051 33.2377 15.107L13.4466 47.6723C12.5606 49.1301 13.61 50.9959 15.3159 50.9959H54.898C56.6043 50.9959 57.6537 49.1301 56.7678 47.6723L36.9765 15.107ZM35.1071 32.4704L30.1107 40.6052H40.1035L35.1071 32.4704Z" fill="white"/>
</svg>
