<svg width="70" height="70" viewBox="0 0 70 70" fill="none" xmlns="http://www.w3.org/2000/svg">
  <circle cx="35" cy="35" r="35" fill="url(#paint0_linear_dai)"/>
  <path fill-rule="evenodd" clip-rule="evenodd" d="M21.726 18.5175H35.0585C43.1683 18.5175 49.3157 22.8764 51.6026 29.2193H55.7558V33.053H52.4772C52.5414 33.6588 52.5741 34.276 52.5741 34.903V34.9972C52.5741 35.7032 52.5327 36.3972 52.4516 37.0769H55.7558V40.9106H51.5236C49.1764 47.1652 43.0766 51.4826 35.0585 51.4826H21.726V40.9106H17.093V37.0769H21.726V33.053H17.093V29.2193H21.726V18.5175ZM25.4532 40.9106V48.0435H35.0585C40.9859 48.0435 45.3897 45.1867 47.4396 40.9106H25.4532ZM48.5815 37.0769H25.4532V33.053H48.5874C48.6732 33.6862 48.7169 34.3353 48.7169 34.9972V35.0914C48.7169 35.7685 48.6712 36.4314 48.5815 37.0769ZM35.0585 21.9509C41.0132 21.9509 45.4302 24.8831 47.4678 29.2193H25.4532V21.9509H35.0585Z" fill="white"/>
  <defs>
    <linearGradient id="paint0_linear_dai" x1="35" y1="-9.91667" x2="35" y2="77.35" gradientUnits="userSpaceOnUse">
      <stop stop-color="#F9A606"/>
      <stop offset="1" stop-color="#FBCC5F"/>
    </linearGradient>
  </defs>
</svg>
