<svg width="20" height="20" viewBox="0 0 20 20" fill="none" xmlns="http://www.w3.org/2000/svg">
    <path d="M10 20C15.5228 20 20 15.5228 20 10C20 4.47715 15.5228 0 10 0C4.47715 0 0 4.47715 0 10C0 15.5228 4.47715 20 10 20Z" fill="#00DCFA"/>
    <path d="M11.8424 4C9.73176 4 7.93882 5.62353 7.71294 7.71294C5.62353 7.93882 4 9.73176 4 11.8424C4 14.1365 5.86353 16 8.15765 16C10.2682 16 12.0682 14.3765 12.2871 12.2871C14.3765 12.0612 16 10.2682 16 8.15765C16 5.86353 14.1365 4 11.8424 4ZM15.0259 8.62353C14.922 9.30525 14.6029 9.93592 14.1153 10.4235C13.6277 10.9112 12.997 11.2302 12.3153 11.3341V8.62353H15.0259ZM4.97412 11.3765C5.07666 10.6935 5.39509 10.0612 5.88282 9.57221C6.37055 9.08321 7.00198 8.76314 7.68471 8.65882V11.3694H4.97412V11.3765ZM11.3412 12.3153C11.2285 13.0789 10.8449 13.7765 10.2604 14.2806C9.67587 14.7848 8.92952 15.0618 8.15765 15.0612C6.55529 15.0612 5.20706 13.8894 4.97412 12.3153H11.3412ZM11.3765 8.62353V11.3694H8.62353V8.62353H11.3765ZM15.0259 7.68471H8.65882C8.77151 6.9211 9.15514 6.22352 9.73963 5.71937C10.3241 5.21523 11.0705 4.93818 11.8424 4.93882C13.4447 4.93882 14.7929 6.11059 15.0259 7.68471Z" fill="white"/>
</svg>
