<svg width="70" height="70" viewBox="0 0 70 70" fill="none" xmlns="http://www.w3.org/2000/svg">
  <path d="M35 70C54.33 70 70 54.33 70 35C70 15.67 54.33 0 35 0C15.67 0 0 15.67 0 35C0 54.33 15.67 70 35 70Z" fill="#50387C"/>
  <path d="M52.29 43.9081L36.3797 14.8426C36.2447 14.5878 36.0445 14.375 35.8004 14.2267C35.5563 14.0783 35.2773 14 34.993 14C34.7088 14 34.4298 14.0783 34.1857 14.2267C33.9416 14.375 33.7414 14.5878 33.6063 14.8426L17.7021 43.9081C17.2885 44.6576 17.5257 45.6302 18.2677 46.0762L34.1963 55.7771C34.4484 55.9232 34.7334 56 35.0234 56C35.3135 56 35.5985 55.9232 35.8506 55.7771L51.7548 46.0948C52.4603 45.6302 52.7219 44.6576 52.29 43.9081ZM40.2661 32.1939L39.8768 31.8594L39.8525 31.8346C39.7286 31.7316 39.5986 31.6364 39.4632 31.5497L39.4389 31.5249C39.3112 31.4382 39.1774 31.3452 39.0253 31.2585C39.001 31.2585 39.001 31.2337 38.9828 31.2337C38.8551 31.147 38.703 31.0789 38.5692 31.0107C38.5449 31.0107 38.5449 30.986 38.5266 30.986C38.3989 30.9178 38.2469 30.8559 38.0948 30.7877C38.0705 30.7877 38.0705 30.7629 38.0522 30.7629C37.9245 30.7196 37.7907 30.6514 37.663 30.6081C37.3114 30.4739 36.9492 30.3703 36.5804 30.2983C36.3006 30.8497 35.9053 31.3391 35.4735 31.7541C36.1486 31.7975 36.7994 31.9771 37.3832 32.2187C37.7286 32.3701 38.062 32.5482 38.3807 32.7514C38.3891 32.7523 38.3972 32.755 38.4045 32.7593C38.4118 32.7635 38.4182 32.7693 38.4232 32.7762C38.5084 32.8196 38.5753 32.8877 38.6604 32.9559C38.7011 32.9788 38.7381 33.0081 38.7699 33.0426C38.8487 33.0948 38.922 33.155 38.9889 33.2222C39.0314 33.2656 39.074 33.2904 39.1166 33.3337C39.1835 33.4019 39.2443 33.4452 39.3112 33.5134L39.4389 33.6435L39.6153 33.8231L39.743 33.9532C39.7891 34.017 39.8399 34.077 39.8951 34.1329C39.9376 34.1824 39.9802 34.2444 40.0228 34.2877L40.1505 34.486C40.1931 34.5541 40.2357 34.5975 40.26 34.6656L40.3877 34.8638C40.4303 34.932 40.4546 34.9939 40.4972 35.0435C40.5397 35.1116 40.5641 35.1736 40.6066 35.2417C40.6492 35.3098 40.6736 35.3718 40.7161 35.4399C40.7405 35.5081 40.783 35.57 40.8013 35.6382C40.8438 35.7249 40.8682 35.8178 40.9107 35.8798C41.0934 36.3324 41.218 36.8071 41.2817 37.2921L41.4764 38.0665C41.5615 38.401 42.3461 41.2258 44.1646 42.1798C46.2507 43.2824 49.0058 44.6576 50.0884 45.1842L35.7958 53.8939V47.9284C35.7958 46.9806 37.6387 45.8718 38.4841 45.5001L38.5266 45.4753C38.703 45.3886 38.8733 45.2957 39.0497 45.1904L39.1166 45.147C39.4869 44.9235 39.8351 44.6642 40.1566 44.3727C40.1809 44.3479 40.2235 44.3293 40.2417 44.2859C40.2843 44.2612 40.3086 44.2178 40.3512 44.1992C40.4607 44.1125 40.5458 44.001 40.6553 43.9143L40.6979 43.8709C40.8104 43.7637 40.9123 43.6454 41.002 43.5178C41.0263 43.4744 41.0689 43.4497 41.0871 43.4063C41.1723 43.3196 41.2392 43.2081 41.3243 43.0966C41.3486 43.0718 41.3669 43.0284 41.3912 43.0098L41.6527 42.6134C41.6527 42.5886 41.6771 42.5886 41.6771 42.57C41.7865 42.3904 41.896 42.1921 42.0055 42.0187C41.5737 41.486 41.2453 40.916 40.9837 40.3833C40.873 40.7108 40.7346 41.0279 40.5702 41.3311C40.5033 41.4612 40.4181 41.5975 40.3512 41.7275C40.3269 41.7523 40.3269 41.7709 40.3086 41.7709C40.2415 41.8783 40.1684 41.9817 40.0897 42.0806C40.0654 42.1054 40.0471 42.1488 40.0228 42.1674C39.9553 42.2718 39.8757 42.3675 39.7856 42.4523C39.7613 42.4771 39.7613 42.4957 39.743 42.4957C39.22 43.0904 38.5935 43.5983 37.8759 43.9514L37.7481 44.0196C37.3771 44.1744 34.1902 45.655 34.1902 47.8851V53.8505L19.8672 45.1656C20.7978 44.5895 23.4921 42.9541 25.7059 42.2479C26.5756 41.9629 28.4184 43.1523 29.4585 44.0134L29.5254 44.0815C29.6594 44.2188 29.8038 44.3451 29.9572 44.4594L29.9998 44.5028C30.3282 44.7691 30.6748 45.0355 31.0641 45.2337L31.3256 45.3638C31.334 45.3647 31.3421 45.3674 31.3495 45.3717C31.3568 45.3759 31.3632 45.3817 31.3682 45.3886C31.6054 45.5187 31.8426 45.6302 32.1041 45.7417C32.1395 45.7588 32.1761 45.7733 32.2136 45.7851C32.2379 45.7851 32.2562 45.8098 32.2987 45.8098C32.6697 45.9399 33.0346 46.0514 33.4056 46.1444C33.6854 45.593 34.099 45.1036 34.5369 44.6886C33.927 44.6464 33.3265 44.5128 32.7549 44.2921C32.7305 44.2674 32.688 44.2674 32.6697 44.2488C32.6017 44.2278 32.5364 44.1987 32.4751 44.1621C32.4508 44.1373 32.4082 44.1373 32.39 44.1187C32.3231 44.0939 32.2622 44.0506 32.2136 44.032C31.7818 43.809 31.3864 43.5674 31.0215 43.2576L30.4559 42.7249C29.9332 42.2569 29.3669 41.842 28.7651 41.486C27.3541 40.6683 26.1621 40.4019 25.2498 40.693C23.3644 41.3125 21.2114 42.4833 19.9098 43.2576L34.2085 17.0913V28.5638C34.2085 28.9603 33.6246 30.0196 31.648 30.9302L31.5202 30.9983C31.3256 31.0851 31.1492 31.1966 30.9546 31.3081L30.912 31.3329C30.5379 31.5621 30.182 31.8211 29.8477 32.1072C29.6371 32.2817 29.4418 32.4744 29.2638 32.6833L29.2395 32.7081C29.0473 32.8982 28.8722 33.1055 28.7165 33.3275L28.6921 33.3523C28.607 33.4638 28.5401 33.5753 28.4549 33.6868C28.4549 33.7116 28.4306 33.7116 28.4306 33.7302C28.3637 33.8417 28.3029 33.9284 28.236 34.0399C28.236 34.0647 28.2117 34.0647 28.2117 34.0833L28.017 34.4178C27.9927 34.4426 27.9927 34.4612 27.9745 34.5045C27.9076 34.616 27.865 34.7275 27.8224 34.8143C27.8215 34.8228 27.8189 34.8311 27.8147 34.8386C27.8105 34.846 27.8049 34.8525 27.7981 34.8576C27.7555 34.9691 27.7129 35.0559 27.6704 35.1674C27.6536 35.2034 27.6393 35.2407 27.6278 35.2789L27.5001 35.6134C27.4833 35.6495 27.469 35.6867 27.4575 35.7249C27.4373 35.8082 27.4087 35.8891 27.3724 35.9665C27.348 36.0098 27.348 36.0532 27.3298 36.0966C27.3055 36.2081 27.2629 36.3196 27.2446 36.4063C27.2203 36.4497 27.2203 36.5178 27.2021 36.5612C27.1777 36.6293 27.1777 36.716 27.1595 36.7842C27.1352 36.8523 27.1352 36.9143 27.1169 36.9824C27.0926 37.0691 27.0926 37.1621 27.0743 37.2488C27.0743 37.3169 27.05 37.3603 27.05 37.4284C27.05 37.5152 27.0257 37.5833 27.0257 37.67C27.0297 37.7513 27.0215 37.8328 27.0014 37.9116V38.2461C26.9988 38.6463 27.0273 39.0461 27.0865 39.4417C27.6521 39.5718 28.236 39.8196 28.8685 40.1293C28.6921 39.5532 28.607 38.9585 28.5887 38.339V38.2275C28.5847 38.0805 28.5928 37.9334 28.6131 37.7877V37.6762C28.6131 37.5461 28.6374 37.4346 28.6556 37.2983V37.255C28.68 37.1249 28.6982 36.9886 28.7225 36.8337C28.7225 36.7904 28.7469 36.7656 28.7469 36.7222C28.7712 36.6107 28.8138 36.4992 28.832 36.3877C28.832 36.3629 28.8563 36.3444 28.8563 36.3196L28.9841 35.9231C29.0084 35.8983 29.0084 35.855 29.0266 35.8364C29.0692 35.7249 29.1118 35.6134 29.1544 35.5267C29.1787 35.5019 29.1787 35.4833 29.1969 35.4399C29.2638 35.3098 29.3064 35.1983 29.3916 35.0868C29.4079 35.0656 29.4221 35.0428 29.4341 35.0187C29.501 34.9072 29.5436 34.8205 29.6105 34.709C29.6268 34.6877 29.6411 34.6649 29.6531 34.6408C29.7261 34.525 29.8053 34.4133 29.8903 34.3063C29.8902 34.303 29.8908 34.2998 29.892 34.2967C29.8932 34.2937 29.8949 34.2909 29.8972 34.2886C29.8995 34.2863 29.9022 34.2845 29.9052 34.2832C29.9082 34.282 29.9114 34.2814 29.9146 34.2815C29.9998 34.17 30.0667 34.0833 30.1518 33.9718C30.1681 33.9505 30.1824 33.9277 30.1944 33.9037C30.5859 33.4632 31.0315 33.0759 31.5202 32.7514L32.1953 32.4169C32.5663 32.2621 35.735 30.7382 35.735 28.5019V17.0727L50.1675 43.4621C48.8842 42.824 46.6095 41.6718 44.8518 40.7426C43.8301 40.2098 43.1611 38.3329 42.9664 37.6452L42.7718 36.8523C42.7718 36.4311 42.6623 36.0098 42.5346 35.5948C42.0764 34.2823 41.2953 33.1113 40.2661 32.1939Z" fill="white"/>
</svg>
