<?xml version="1.0" encoding="utf-8"?>
<svg width="20" height="20" viewBox="0 0 20 20" fill="none" xmlns="http://www.w3.org/2000/svg">
  <path d="M10 20C15.5228 20 20 15.5228 20 10C20 4.47715 15.5228 0 10 0C4.47715 0 0 4.47715 0 10C0 15.5228 4.47715 20 10 20Z" fill="#50387C"/>
  <path d="M 14.94 12.545 L 10.394 4.241 C 10.356 4.168 10.298 4.107 10.229 4.065 C 10.159 4.022 10.079 4 9.998 4 C 9.917 4 9.837 4.022 9.767 4.065 C 9.698 4.107 9.64 4.168 9.602 4.241 L 5.058 12.545 C 4.94 12.759 5.007 13.037 5.219 13.165 L 9.77 15.936 C 9.842 15.978 9.924 16 10.007 16 C 10.09 16 10.171 15.978 10.243 15.936 L 14.787 13.17 C 14.989 13.037 15.063 12.759 14.94 12.545 Z M 11.505 9.198 L 11.393 9.103 L 11.386 9.096 C 11.351 9.066 11.314 9.039 11.275 9.014 L 11.268 9.007 C 11.232 8.982 11.194 8.956 11.15 8.931 C 11.143 8.931 11.143 8.924 11.138 8.924 C 11.101 8.899 11.058 8.88 11.02 8.86 C 11.013 8.86 11.013 8.853 11.008 8.853 C 10.971 8.834 10.928 8.816 10.884 8.796 C 10.877 8.796 10.877 8.789 10.872 8.789 C 10.836 8.777 10.797 8.758 10.761 8.745 C 10.66 8.707 10.557 8.677 10.452 8.657 C 10.372 8.814 10.259 8.954 10.135 9.073 C 10.328 9.085 10.514 9.136 10.681 9.205 C 10.78 9.249 10.875 9.299 10.966 9.358 C 10.968 9.358 10.971 9.359 10.973 9.36 C 10.975 9.361 10.977 9.363 10.978 9.365 C 11.002 9.377 11.022 9.396 11.046 9.416 C 11.057 9.423 11.068 9.431 11.077 9.441 C 11.1 9.456 11.121 9.473 11.14 9.492 C 11.152 9.504 11.164 9.512 11.176 9.524 C 11.195 9.543 11.213 9.556 11.232 9.575 L 11.268 9.612 L 11.319 9.664 L 11.355 9.701 C 11.368 9.719 11.383 9.736 11.399 9.752 C 11.411 9.766 11.423 9.784 11.435 9.796 L 11.472 9.853 C 11.484 9.873 11.496 9.885 11.503 9.904 L 11.539 9.961 C 11.552 9.981 11.558 9.998 11.571 10.012 C 11.583 10.032 11.59 10.05 11.602 10.069 C 11.614 10.089 11.621 10.106 11.633 10.126 C 11.64 10.145 11.652 10.163 11.658 10.182 C 11.67 10.207 11.677 10.234 11.689 10.251 C 11.741 10.381 11.777 10.516 11.795 10.655 L 11.85 10.876 C 11.875 10.972 12.099 11.779 12.618 12.051 C 13.214 12.366 14.002 12.759 14.311 12.91 L 10.227 15.398 L 10.227 13.694 C 10.227 13.423 10.754 13.106 10.995 13 L 11.008 12.993 C 11.058 12.968 11.107 12.942 11.157 12.912 L 11.176 12.899 C 11.282 12.835 11.381 12.761 11.473 12.678 C 11.48 12.671 11.492 12.666 11.498 12.653 C 11.51 12.646 11.517 12.634 11.529 12.628 C 11.56 12.604 11.585 12.572 11.616 12.547 L 11.628 12.535 C 11.66 12.504 11.689 12.47 11.715 12.434 C 11.722 12.421 11.734 12.414 11.739 12.402 C 11.764 12.377 11.783 12.345 11.807 12.313 C 11.814 12.306 11.819 12.294 11.826 12.289 L 11.901 12.175 C 11.901 12.168 11.908 12.168 11.908 12.163 C 11.939 12.112 11.97 12.055 12.002 12.005 C 11.878 11.853 11.784 11.69 11.71 11.538 C 11.678 11.632 11.638 11.722 11.591 11.809 C 11.572 11.846 11.548 11.885 11.529 11.922 C 11.522 11.929 11.522 11.935 11.517 11.935 C 11.498 11.965 11.477 11.995 11.454 12.023 C 11.447 12.03 11.442 12.043 11.435 12.048 C 11.416 12.078 11.393 12.105 11.367 12.129 C 11.36 12.136 11.36 12.142 11.355 12.142 C 11.206 12.312 11.027 12.457 10.822 12.558 L 10.785 12.577 C 10.679 12.621 9.769 13.044 9.769 13.681 L 9.769 15.386 L 5.676 12.904 C 5.942 12.74 6.712 12.273 7.345 12.071 C 7.593 11.989 8.12 12.329 8.417 12.575 L 8.436 12.595 C 8.474 12.634 8.515 12.67 8.559 12.703 L 8.571 12.715 C 8.665 12.791 8.764 12.867 8.875 12.924 L 8.95 12.961 C 8.953 12.961 8.955 12.962 8.957 12.963 C 8.959 12.965 8.961 12.966 8.962 12.968 C 9.03 13.005 9.098 13.037 9.173 13.069 C 9.183 13.074 9.193 13.078 9.204 13.081 C 9.211 13.081 9.216 13.089 9.228 13.089 C 9.334 13.126 9.438 13.158 9.544 13.184 C 9.624 13.027 9.743 12.887 9.868 12.768 C 9.693 12.756 9.522 12.718 9.359 12.655 C 9.352 12.648 9.339 12.648 9.334 12.643 C 9.315 12.637 9.296 12.628 9.279 12.618 C 9.272 12.611 9.259 12.611 9.254 12.605 C 9.235 12.598 9.218 12.586 9.204 12.581 C 9.081 12.517 8.968 12.448 8.863 12.359 L 8.702 12.207 C 8.552 12.073 8.391 11.955 8.219 11.853 C 7.815 11.62 7.475 11.543 7.214 11.627 C 6.676 11.804 6.06 12.138 5.689 12.359 L 9.774 4.883 L 9.774 8.161 C 9.774 8.274 9.607 8.577 9.042 8.837 L 9.006 8.857 C 8.95 8.881 8.9 8.913 8.844 8.945 L 8.832 8.952 C 8.725 9.018 8.623 9.092 8.528 9.173 C 8.468 9.223 8.412 9.278 8.361 9.338 L 8.354 9.345 C 8.299 9.399 8.249 9.459 8.205 9.522 L 8.198 9.529 C 8.173 9.561 8.154 9.593 8.13 9.625 C 8.13 9.632 8.123 9.632 8.123 9.637 C 8.104 9.669 8.087 9.694 8.067 9.726 C 8.067 9.733 8.06 9.733 8.06 9.738 L 8.005 9.834 C 7.998 9.841 7.998 9.846 7.993 9.858 C 7.974 9.89 7.961 9.922 7.949 9.947 C 7.949 9.949 7.948 9.952 7.947 9.954 C 7.946 9.956 7.944 9.958 7.942 9.959 C 7.93 9.991 7.918 10.016 7.906 10.048 C 7.901 10.058 7.897 10.069 7.894 10.08 L 7.857 10.175 C 7.852 10.186 7.848 10.196 7.845 10.207 C 7.839 10.231 7.831 10.254 7.821 10.276 C 7.814 10.289 7.814 10.301 7.809 10.313 C 7.802 10.345 7.789 10.377 7.784 10.402 C 7.777 10.414 7.777 10.434 7.772 10.446 C 7.765 10.466 7.765 10.49 7.76 10.51 C 7.753 10.529 7.753 10.547 7.748 10.566 C 7.741 10.591 7.741 10.618 7.736 10.643 C 7.736 10.662 7.729 10.674 7.729 10.694 C 7.729 10.719 7.722 10.738 7.722 10.763 C 7.723 10.786 7.72 10.809 7.715 10.832 L 7.715 10.927 C 7.714 11.042 7.722 11.156 7.739 11.269 C 7.901 11.306 8.067 11.377 8.248 11.466 C 8.198 11.301 8.173 11.131 8.168 10.954 L 8.168 10.922 C 8.167 10.88 8.169 10.838 8.175 10.796 L 8.175 10.765 C 8.175 10.727 8.182 10.696 8.187 10.657 L 8.187 10.644 C 8.194 10.607 8.199 10.568 8.206 10.524 C 8.206 10.512 8.213 10.504 8.213 10.492 C 8.22 10.46 8.233 10.428 8.238 10.396 C 8.238 10.389 8.245 10.384 8.245 10.377 L 8.281 10.264 C 8.288 10.257 8.288 10.244 8.293 10.239 C 8.305 10.207 8.318 10.175 8.33 10.15 C 8.337 10.143 8.337 10.138 8.342 10.126 C 8.361 10.089 8.373 10.057 8.398 10.025 C 8.402 10.019 8.406 10.012 8.41 10.005 C 8.429 9.973 8.441 9.949 8.46 9.917 C 8.465 9.911 8.469 9.904 8.472 9.897 C 8.493 9.864 8.516 9.832 8.54 9.802 C 8.54 9.801 8.54 9.8 8.541 9.799 C 8.541 9.798 8.541 9.797 8.542 9.797 C 8.543 9.796 8.543 9.796 8.544 9.795 C 8.545 9.795 8.546 9.795 8.547 9.795 C 8.571 9.763 8.59 9.738 8.615 9.706 C 8.619 9.7 8.624 9.694 8.627 9.687 C 8.739 9.561 8.866 9.45 9.006 9.358 L 9.199 9.262 C 9.305 9.218 10.21 8.782 10.21 8.143 L 10.21 4.878 L 14.334 12.418 C 13.967 12.235 13.317 11.906 12.815 11.641 C 12.523 11.489 12.332 10.952 12.276 10.756 L 12.221 10.529 C 12.221 10.409 12.189 10.289 12.153 10.17 C 12.022 9.795 11.799 9.46 11.505 9.198 Z" fill="white"/>
</svg>