<?xml version="1.0" encoding="utf-8"?>
<svg viewBox="-10.943 0 148.213 164.216" width="187.896" height="187.896" xmlns="http://www.w3.org/2000/svg">
  <defs>
    <style type="text/css">
	.st0{fill:#FF007A;}
	.st1{fill-rule:evenodd;clip-rule:evenodd;fill:#FF007A;}
</style>
  </defs>
  <circle style="fill: rgb(255, 255, 255);" cx="82.928" cy="69.78" r="93.948"/>
  <g style="" transform="matrix(1.14892, 0, 0, 1.14892, -22.169136, -21.685261)">
    <path class="st0" d="M 62.512 44.41 C 61.054 44.201 60.983 44.131 61.679 44.062 C 62.999 43.854 66.053 44.131 68.205 44.617 C 73.206 45.797 77.719 48.853 82.51 54.199 L 83.761 55.658 L 85.565 55.38 C 93.274 54.131 101.189 55.103 107.786 58.157 C 109.591 58.992 112.438 60.658 112.786 61.073 C 112.924 61.213 113.133 62.115 113.272 63.018 C 113.757 66.282 113.549 68.712 112.508 70.588 C 111.953 71.629 111.953 71.906 112.3 72.809 C 112.577 73.504 113.409 73.99 114.174 73.99 C 115.841 73.99 117.577 71.351 118.411 67.672 L 118.758 66.213 L 119.383 66.907 C 122.922 70.865 125.7 76.35 126.118 80.24 L 126.257 81.28 L 125.632 80.378 C 124.59 78.781 123.617 77.739 122.298 76.836 C 119.937 75.241 117.438 74.753 110.841 74.408 C 104.869 74.059 101.466 73.572 98.134 72.463 C 92.441 70.588 89.523 68.158 82.788 59.199 C 79.803 55.241 77.927 53.09 76.052 51.283 C 71.956 47.326 67.858 45.242 62.512 44.41 Z" style=""/>
    <path class="st0" d="M 114.243 53.228 C 114.382 50.589 114.73 48.853 115.493 47.256 C 115.772 46.631 116.048 46.075 116.119 46.075 C 116.187 46.075 116.048 46.561 115.841 47.117 C 115.286 48.644 115.215 50.798 115.563 53.228 C 116.048 56.353 116.258 56.769 119.591 60.172 C 121.118 61.77 122.922 63.783 123.617 64.616 L 124.799 66.143 L 123.617 65.032 C 122.16 63.644 118.826 61.004 118.062 60.658 C 117.577 60.38 117.507 60.38 117.16 60.727 C 116.881 61.004 116.813 61.422 116.813 63.435 C 116.744 66.56 116.327 68.505 115.286 70.518 C 114.73 71.56 114.66 71.351 115.146 70.171 C 115.493 69.268 115.563 68.852 115.563 65.866 C 115.563 59.825 114.869 58.366 110.632 55.936 C 109.591 55.31 107.786 54.408 106.745 53.923 C 105.633 53.436 104.8 53.019 104.869 53.019 C 105.008 52.881 109.105 54.061 110.702 54.755 C 113.133 55.727 113.549 55.797 113.827 55.727 C 114.035 55.52 114.174 54.964 114.243 53.228 Z" style=""/>
    <path class="st0" d="M 65.359 63.574 C 62.443 59.546 60.568 53.296 60.983 48.644 L 61.122 47.187 L 61.816 47.326 C 63.067 47.534 65.22 48.367 66.262 48.992 C 69.039 50.659 70.289 52.95 71.469 58.645 C 71.817 60.31 72.303 62.255 72.511 62.879 C 72.859 63.921 74.178 66.352 75.289 67.879 C 76.052 68.991 75.566 69.547 73.831 69.407 C 71.191 69.129 67.65 66.699 65.359 63.574 Z" style=""/>
    <path class="st0" d="M 110.702 93.78 C 96.953 88.225 92.092 83.432 92.092 75.309 C 92.092 74.129 92.162 73.157 92.162 73.157 C 92.232 73.157 92.717 73.572 93.342 74.059 C 96.12 76.282 99.245 77.254 107.925 78.503 C 112.995 79.268 115.91 79.822 118.55 80.725 C 126.951 83.503 132.159 89.197 133.408 96.904 C 133.756 99.127 133.547 103.363 132.992 105.583 C 132.506 107.32 131.117 110.514 130.77 110.584 C 130.7 110.584 130.561 110.238 130.561 109.681 C 130.422 106.765 128.965 103.988 126.535 101.834 C 123.617 99.335 119.868 97.46 110.702 93.78 Z" style=""/>
    <path class="st0" d="M 100.981 96.07 C 100.842 95.029 100.495 93.711 100.287 93.155 L 99.939 92.112 L 100.564 92.877 C 101.466 93.918 102.161 95.169 102.787 96.904 C 103.273 98.223 103.273 98.641 103.273 100.793 C 103.273 102.876 103.203 103.363 102.787 104.542 C 102.093 106.417 101.259 107.736 99.87 109.196 C 97.371 111.765 94.107 113.153 89.455 113.778 C 88.622 113.848 86.259 114.057 84.176 114.195 C 78.969 114.472 75.497 115.029 72.373 116.138 C 71.956 116.278 71.539 116.417 71.469 116.347 C 71.33 116.208 73.482 114.958 75.22 114.124 C 77.65 112.945 80.148 112.319 85.635 111.347 C 88.343 110.932 91.121 110.375 91.814 110.098 C 98.689 107.946 102.093 102.598 100.981 96.07 Z" style=""/>
    <path class="st0" d="M 107.299 107.251 C 105.494 103.293 105.079 99.544 106.051 96.002 C 106.189 95.655 106.327 95.308 106.466 95.308 C 106.606 95.308 107.023 95.516 107.438 95.793 C 108.271 96.349 110.009 97.321 114.452 99.751 C 120.076 102.806 123.27 105.168 125.494 107.875 C 127.437 110.238 128.617 112.945 129.172 116.278 C 129.519 118.153 129.312 122.667 128.825 124.542 C 127.298 130.444 123.826 135.166 118.758 137.874 C 117.993 138.288 117.368 138.567 117.299 138.567 C 117.229 138.567 117.507 137.874 117.923 137.041 C 119.591 133.498 119.797 130.096 118.55 126.277 C 117.785 123.916 116.187 121.068 112.995 116.278 C 109.175 110.723 108.271 109.265 107.299 107.251 Z" style=""/>
    <path class="st0" d="M 55.567 128.5 C 60.707 124.194 67.025 121.139 72.859 120.166 C 75.358 119.75 79.524 119.889 81.816 120.513 C 85.497 121.486 88.829 123.57 90.565 126.138 C 92.232 128.638 92.995 130.791 93.759 135.581 C 94.036 137.456 94.385 139.4 94.454 139.818 C 95.009 142.317 96.12 144.262 97.51 145.303 C 99.662 146.901 103.411 146.97 107.092 145.581 C 107.716 145.372 108.271 145.164 108.271 145.233 C 108.41 145.372 106.536 146.622 105.285 147.248 C 103.549 148.15 102.161 148.428 100.287 148.428 C 96.953 148.428 94.107 146.692 91.814 143.219 C 91.329 142.525 90.357 140.512 89.523 138.637 C 87.092 133.012 85.844 131.347 82.996 129.472 C 80.496 127.874 77.302 127.528 74.872 128.707 C 71.677 130.235 70.844 134.332 73.066 136.831 C 73.969 137.874 75.637 138.706 77.025 138.915 C 79.594 139.261 81.816 137.249 81.816 134.678 C 81.816 133.012 81.19 132.041 79.524 131.277 C 77.302 130.305 74.872 131.415 74.942 133.568 C 74.942 134.471 75.358 135.026 76.261 135.442 C 76.817 135.72 76.817 135.72 76.399 135.651 C 74.386 135.235 73.9 132.734 75.497 131.138 C 77.44 129.193 81.537 130.026 82.928 132.734 C 83.482 133.845 83.552 136.068 83.066 137.456 C 81.887 140.512 78.552 142.11 75.15 141.206 C 72.859 140.581 71.886 139.956 69.109 137.109 C 64.247 132.11 62.373 131.138 55.429 130.096 L 54.109 129.887 L 55.567 128.5 Z" style=""/>
    <path class="st1" d="M 29.136 35.432 C 45.315 55.082 60.151 66.975 61.401 68.643 C 62.443 70.032 62.026 71.351 60.29 72.324 C 59.318 72.878 57.303 73.435 56.332 73.435 C 55.22 73.435 53.902 72.878 52.999 71.977 C 52.374 71.351 53.679 71.525 47.568 62.012 C 42.916 54.721 40.531 50.612 38.888 48.61 C 38.612 48.472 40.455 51.177 47.082 63.61 C 52.215 73.24 50.152 72.393 50.152 72.809 C 50.152 73.711 49.874 74.198 48.763 75.447 C 46.889 77.531 46.054 79.892 45.43 84.822 C 44.735 90.308 42.861 94.196 37.515 100.793 C 34.39 104.682 33.904 105.377 33.139 106.973 C 32.168 108.918 31.889 110.029 31.751 112.528 C 31.613 115.167 31.889 116.834 32.654 119.333 C 33.348 121.555 34.111 123.013 35.986 125.86 C 37.584 128.361 38.556 130.235 38.556 130.93 C 38.556 131.486 38.694 131.486 41.195 130.93 C 47.166 129.541 52.095 127.18 54.805 124.264 C 56.471 122.458 56.888 121.486 56.888 118.986 C 56.888 117.388 56.818 117.041 56.401 116.069 C 55.707 114.542 54.387 113.292 51.541 111.347 C 47.791 108.779 46.194 106.695 45.777 103.918 C 45.43 101.557 45.847 99.96 47.93 95.585 C 50.083 91.071 50.638 89.197 50.986 84.615 C 51.193 81.697 51.541 80.517 52.374 79.613 C 53.276 78.642 54.04 78.295 56.193 78.018 C 59.735 77.531 62.026 76.628 63.831 74.893 C 65.429 73.435 66.124 71.977 66.192 69.823 L 66.262 68.226 L 65.359 67.254 C 62.095 63.505 26.982 32.445 26.774 32.445 C 26.705 32.445 27.815 33.764 29.136 35.432 Z M 40.361 115.514 C 41.125 114.195 40.708 112.528 39.459 111.694 C 38.278 110.932 36.473 111.277 36.473 112.319 C 36.473 112.598 36.612 112.876 37.029 113.016 C 37.652 113.361 37.722 113.709 37.236 114.472 C 36.75 115.236 36.75 115.931 37.376 116.417 C 38.348 117.18 39.666 116.764 40.361 115.514 Z" style=""/>
    <path class="st1" d="M 68.484 78.989 C 66.816 79.474 65.22 81.28 64.733 83.086 C 64.456 84.197 64.595 86.21 65.081 86.836 C 65.845 87.808 66.54 88.085 68.484 88.085 C 72.303 88.085 75.566 86.419 75.914 84.405 C 76.261 82.738 74.802 80.447 72.789 79.406 C 71.747 78.851 69.594 78.642 68.484 78.989 Z M 72.927 82.461 C 73.482 81.628 73.275 80.725 72.234 80.101 C 70.358 78.92 67.512 79.892 67.512 81.697 C 67.512 82.599 68.97 83.572 70.358 83.572 C 71.262 83.572 72.511 83.017 72.927 82.461 Z" style=""/>
  </g>
</svg>