<?xml version="1.0" encoding="utf-8"?>
<svg viewBox="0 0 500 500" xmlns="http://www.w3.org/2000/svg">
  <defs>
    <linearGradient id="paint0_linear_dai" x1="12" y1="-0.833333" x2="12" y2="24.1" gradientUnits="userSpaceOnUse" gradientTransform="matrix(1, 0, 0, 1, 102.036461, 96.446114)">
      <stop stop-color="#F9A606"/>
      <stop offset="1" stop-color="#FBCC5F"/>
    </linearGradient>
  </defs>
  <g style="" transform="matrix(15.112707, 0, 0, 15.407442, -1568.701172, -1383.019653)">
    <g>
      <path d="M 123.915 118.22 C 129.438 118.22 133.915 113.743 133.915 108.22 C 133.915 102.697 129.438 98.22 123.915 98.22 C 118.392 98.22 113.915 102.697 113.915 108.22 C 113.915 113.743 118.392 118.22 123.915 118.22 Z" fill="#667FE3"/>
      <g transform="matrix(1, 0, 0, 1, 114.164925, 98.93792)">
        <path d="M 9.75 3.282 L 9.75 11.57 L 5.75 9.393 L 9.75 3.282 Z" fill="white"/>
        <path d="M 9.75 3.282 L 13.75 9.393 L 9.75 11.57 L 9.75 3.282 Z" fill="white"/>
        <path d="M 9.75 12.267 L 9.75 15.281 L 5.75 10.092 L 9.75 12.267 Z" fill="white"/>
        <path d="M 9.75 15.281 L 9.75 12.267 L 13.75 10.092 L 9.75 15.281 Z" fill="white"/>
      </g>
      <circle cx="114.036" cy="108.446" r="10" fill="url(#paint0_linear_dai)"/>
      <path fill-rule="evenodd" clip-rule="evenodd" d="M 110.244 103.737 L 114.053 103.737 C 116.37 103.737 118.126 104.982 118.78 106.794 L 119.966 106.794 L 119.966 107.89 L 119.03 107.89 C 119.048 108.063 119.057 108.239 119.057 108.418 L 119.057 108.445 C 119.057 108.647 119.045 108.845 119.022 109.039 L 119.966 109.039 L 119.966 110.135 L 118.757 110.135 C 118.087 111.922 116.344 113.155 114.053 113.155 L 110.244 113.155 L 110.244 110.135 L 108.92 110.135 L 108.92 109.039 L 110.244 109.039 L 110.244 107.89 L 108.92 107.89 L 108.92 106.794 L 110.244 106.794 L 110.244 103.737 Z M 111.308 110.135 L 111.308 112.173 L 114.053 112.173 C 115.746 112.173 117.005 111.356 117.59 110.135 L 111.308 110.135 Z M 117.917 109.039 L 111.308 109.039 L 111.308 107.89 L 117.918 107.89 C 117.943 108.071 117.955 108.256 117.955 108.445 L 117.955 108.472 C 117.955 108.665 117.942 108.855 117.917 109.039 Z M 114.053 104.718 C 115.754 104.718 117.016 105.555 117.598 106.794 L 111.308 106.794 L 111.308 104.718 L 114.053 104.718 Z" fill="white"/>
      <circle style="stroke: rgb(186, 218, 85); stroke-opacity: 0; fill: rgb(255, 255, 255);" cx="147.507" cy="178.356" r="10.829" transform="matrix(0.629346, 0, 0, 0.572724, 38.726746, -4.871364)"/>
      <path class="st0" d="M 128.441 93.228 C 128.32 93.211 128.314 93.205 128.372 93.199 C 128.481 93.181 128.736 93.205 128.916 93.246 C 129.332 93.346 129.708 93.606 130.108 94.06 L 130.212 94.185 L 130.362 94.161 C 131.005 94.055 131.664 94.137 132.214 94.397 C 132.364 94.468 132.602 94.61 132.631 94.645 C 132.642 94.657 132.66 94.734 132.671 94.81 C 132.712 95.088 132.694 95.295 132.607 95.454 C 132.561 95.542 132.561 95.566 132.59 95.642 C 132.614 95.702 132.683 95.743 132.746 95.743 C 132.885 95.743 133.03 95.519 133.099 95.206 L 133.128 95.082 L 133.181 95.141 C 133.476 95.477 133.707 95.944 133.742 96.274 L 133.753 96.363 L 133.701 96.286 C 133.614 96.15 133.533 96.062 133.423 95.985 C 133.227 95.849 133.018 95.808 132.469 95.778 C 131.971 95.749 131.688 95.708 131.41 95.613 C 130.935 95.454 130.692 95.247 130.131 94.486 C 129.882 94.149 129.726 93.966 129.57 93.813 C 129.228 93.476 128.887 93.299 128.441 93.228 Z" style="fill: rgb(255, 0, 122);"/>
      <path class="st0" d="M 132.752 93.978 C 132.764 93.754 132.793 93.606 132.856 93.47 C 132.879 93.417 132.903 93.37 132.909 93.37 C 132.914 93.37 132.903 93.411 132.885 93.458 C 132.839 93.588 132.833 93.771 132.862 93.978 C 132.903 94.244 132.92 94.279 133.198 94.568 C 133.325 94.704 133.476 94.875 133.533 94.946 L 133.632 95.076 L 133.533 94.982 C 133.412 94.863 133.134 94.639 133.07 94.61 C 133.03 94.586 133.024 94.586 132.995 94.616 C 132.972 94.639 132.966 94.675 132.966 94.846 C 132.961 95.111 132.926 95.277 132.839 95.448 C 132.793 95.536 132.787 95.519 132.827 95.418 C 132.856 95.341 132.862 95.306 132.862 95.052 C 132.862 94.539 132.804 94.415 132.451 94.208 C 132.364 94.155 132.214 94.078 132.127 94.037 C 132.035 93.996 131.965 93.96 131.971 93.96 C 131.983 93.948 132.324 94.049 132.457 94.108 C 132.66 94.191 132.694 94.197 132.718 94.191 C 132.735 94.173 132.746 94.126 132.752 93.978 Z" style="fill: rgb(255, 0, 122);"/>
      <path class="st0" d="M 128.678 94.857 C 128.435 94.515 128.279 93.984 128.314 93.588 L 128.325 93.464 L 128.383 93.476 C 128.487 93.494 128.667 93.565 128.753 93.618 C 128.985 93.759 129.089 93.954 129.187 94.438 C 129.216 94.58 129.257 94.745 129.274 94.799 C 129.303 94.887 129.413 95.094 129.506 95.224 C 129.57 95.318 129.529 95.365 129.384 95.353 C 129.164 95.33 128.869 95.123 128.678 94.857 Z" style="fill: rgb(255, 0, 122);"/>
      <path class="st0" d="M 132.457 97.425 C 131.311 96.953 130.906 96.546 130.906 95.855 C 130.906 95.755 130.912 95.672 130.912 95.672 C 130.918 95.672 130.958 95.708 131.01 95.749 C 131.242 95.938 131.502 96.02 132.226 96.127 C 132.648 96.192 132.891 96.239 133.111 96.316 C 133.811 96.552 134.245 97.036 134.349 97.691 C 134.378 97.88 134.361 98.24 134.315 98.429 C 134.274 98.577 134.158 98.848 134.129 98.854 C 134.124 98.854 134.112 98.824 134.112 98.777 C 134.101 98.529 133.979 98.293 133.777 98.11 C 133.533 97.898 133.221 97.738 132.457 97.425 Z" style="fill: rgb(255, 0, 122);"/>
      <path class="st0" d="M 131.647 97.62 C 131.635 97.531 131.607 97.419 131.589 97.372 L 131.56 97.284 L 131.612 97.348 C 131.688 97.437 131.745 97.543 131.797 97.691 C 131.838 97.803 131.838 97.838 131.838 98.021 C 131.838 98.199 131.832 98.24 131.797 98.34 C 131.74 98.5 131.67 98.612 131.554 98.736 C 131.346 98.954 131.074 99.072 130.686 99.125 C 130.617 99.131 130.42 99.149 130.246 99.161 C 129.813 99.184 129.523 99.231 129.263 99.326 C 129.228 99.338 129.193 99.35 129.187 99.344 C 129.176 99.332 129.355 99.226 129.5 99.155 C 129.703 99.055 129.911 99.001 130.368 98.919 C 130.594 98.883 130.825 98.836 130.883 98.812 C 131.456 98.629 131.74 98.175 131.647 97.62 Z" style="fill: rgb(255, 0, 122);"/>
      <path class="st0" d="M 132.174 98.571 C 132.023 98.234 131.988 97.915 132.069 97.614 C 132.081 97.585 132.092 97.555 132.104 97.555 C 132.116 97.555 132.151 97.573 132.185 97.597 C 132.255 97.644 132.399 97.726 132.77 97.933 C 133.238 98.193 133.505 98.393 133.69 98.623 C 133.852 98.824 133.95 99.055 133.996 99.338 C 134.025 99.497 134.008 99.881 133.968 100.04 C 133.84 100.542 133.551 100.944 133.128 101.174 C 133.065 101.209 133.013 101.233 133.007 101.233 C 133.001 101.233 133.024 101.174 133.059 101.103 C 133.198 100.802 133.215 100.512 133.111 100.188 C 133.047 99.987 132.914 99.745 132.648 99.338 C 132.33 98.866 132.255 98.742 132.174 98.571 Z" style="fill: rgb(255, 0, 122);"/>
      <path class="st0" d="M 127.862 100.377 C 128.291 100.011 128.817 99.751 129.303 99.669 C 129.511 99.633 129.859 99.645 130.05 99.698 C 130.357 99.781 130.634 99.958 130.779 100.176 C 130.918 100.389 130.981 100.572 131.045 100.979 C 131.068 101.138 131.097 101.303 131.103 101.339 C 131.149 101.552 131.242 101.717 131.357 101.805 C 131.537 101.941 131.849 101.947 132.156 101.829 C 132.208 101.811 132.255 101.793 132.255 101.799 C 132.266 101.811 132.11 101.917 132.006 101.971 C 131.861 102.047 131.745 102.071 131.589 102.071 C 131.311 102.071 131.074 101.923 130.883 101.628 C 130.842 101.569 130.761 101.398 130.692 101.239 C 130.49 100.761 130.385 100.619 130.148 100.46 C 129.94 100.324 129.674 100.294 129.471 100.394 C 129.205 100.524 129.135 100.873 129.321 101.085 C 129.396 101.174 129.535 101.245 129.65 101.262 C 129.865 101.292 130.05 101.12 130.05 100.902 C 130.05 100.761 129.998 100.678 129.859 100.613 C 129.674 100.53 129.471 100.625 129.477 100.808 C 129.477 100.884 129.511 100.932 129.587 100.967 C 129.633 100.991 129.633 100.991 129.598 100.985 C 129.431 100.95 129.39 100.737 129.523 100.601 C 129.685 100.436 130.027 100.507 130.142 100.737 C 130.189 100.831 130.194 101.02 130.154 101.138 C 130.055 101.398 129.778 101.534 129.494 101.457 C 129.303 101.404 129.222 101.351 128.991 101.109 C 128.586 100.684 128.429 100.601 127.851 100.512 L 127.741 100.495 L 127.862 100.377 Z" style="fill: rgb(255, 0, 122);"/>
      <path class="st1" d="M 124.818 90.879 C 126.167 92.549 128.244 95.147 128.348 95.289 C 128.435 95.407 128.4 95.519 128.256 95.601 C 128.175 95.648 128.007 95.696 127.926 95.696 C 127.833 95.696 127.724 95.648 127.648 95.572 C 127.596 95.519 127.37 95.182 126.861 94.373 C 126.474 93.754 126.144 93.24 126.138 93.234 C 126.115 93.223 126.115 93.223 126.821 94.509 C 127.266 95.318 127.411 95.607 127.411 95.642 C 127.411 95.719 127.388 95.761 127.295 95.867 C 127.139 96.044 127.07 96.245 127.018 96.664 C 126.959 97.13 126.803 97.461 126.358 98.021 C 126.097 98.352 126.057 98.411 125.993 98.547 C 125.912 98.712 125.889 98.807 125.877 99.019 C 125.866 99.243 125.889 99.385 125.952 99.598 C 126.011 99.787 126.074 99.91 126.23 100.153 C 126.363 100.365 126.444 100.524 126.444 100.583 C 126.444 100.631 126.456 100.631 126.664 100.583 C 127.162 100.465 127.573 100.265 127.799 100.017 C 127.937 99.863 127.972 99.781 127.972 99.568 C 127.972 99.432 127.966 99.403 127.932 99.32 C 127.874 99.19 127.764 99.084 127.527 98.919 C 127.214 98.7 127.081 98.523 127.046 98.287 C 127.018 98.087 127.052 97.951 127.226 97.579 C 127.405 97.195 127.451 97.036 127.481 96.646 C 127.498 96.398 127.527 96.298 127.596 96.221 C 127.671 96.138 127.735 96.109 127.914 96.086 C 128.209 96.044 128.4 95.967 128.551 95.82 C 128.684 95.696 128.742 95.572 128.748 95.389 L 128.753 95.253 L 128.678 95.17 C 128.406 94.851 124.639 90.625 124.622 90.625 C 124.616 90.625 124.709 90.737 124.818 90.879 Z M 126.595 99.273 C 126.659 99.161 126.624 99.019 126.52 98.948 C 126.422 98.883 126.271 98.913 126.271 99.001 C 126.271 99.025 126.283 99.049 126.317 99.061 C 126.369 99.09 126.375 99.119 126.335 99.184 C 126.294 99.249 126.294 99.308 126.346 99.35 C 126.427 99.414 126.537 99.379 126.595 99.273 Z" style="clip-rule: evenodd; fill: rgb(255, 0, 122); fill-rule: evenodd;"/>
      <path class="st1" d="M 128.939 96.168 C 128.8 96.209 128.667 96.363 128.626 96.516 C 128.603 96.611 128.615 96.782 128.655 96.835 C 128.719 96.918 128.777 96.941 128.939 96.941 C 129.257 96.941 129.529 96.8 129.558 96.628 C 129.587 96.487 129.465 96.292 129.298 96.203 C 129.211 96.156 129.031 96.138 128.939 96.168 Z M 129.309 96.463 C 129.355 96.392 129.338 96.316 129.251 96.262 C 129.095 96.162 128.858 96.245 128.858 96.398 C 128.858 96.475 128.979 96.558 129.095 96.558 C 129.17 96.558 129.274 96.51 129.309 96.463 Z" style="clip-rule: evenodd; fill: rgb(255, 0, 122); fill-rule: evenodd;"/>
    </g>
  </g>
</svg>