<svg width="70" height="70" viewBox="0 0 70 70" fill="none" xmlns="http://www.w3.org/2000/svg">
  <path d="M35 70C54.33 70 70 54.33 70 35C70 15.67 54.33 0 35 0C15.67 0 0 15.67 0 35C0 54.33 15.67 70 35 70Z" fill="#2775CA"/>
  <path d="M28.5833 59.2084C28.5833 60.0834 28 60.3751 27.125 60.3751C16.3333 56.8751 8.75 46.9584 8.75 35.2918C8.75 23.6251 16.3333 13.7084 27.125 10.2084C28 9.91677 28.5833 10.5001 28.5833 11.3751V13.4168C28.5833 14.0001 28.2917 14.5834 27.7083 14.8751C19.25 18.0834 13.4167 25.9584 13.4167 35.2918C13.4167 44.6251 19.5417 52.7918 27.7083 55.7084C28.2917 56.0001 28.5833 56.5834 28.5833 57.1668V59.2084Z" fill="white"/>
  <path d="M37.3327 51.9164C37.3327 52.4997 36.7493 53.083 36.166 53.083H33.8327C33.2493 53.083 32.666 52.4997 32.666 51.9164V48.4164C27.9993 47.833 25.666 45.208 24.791 41.4164C24.791 40.833 25.0827 40.2497 25.666 40.2497H28.291C28.8743 40.2497 29.166 40.5414 29.4577 41.1247C30.041 43.1664 31.2077 44.9164 34.9993 44.9164C37.916 44.9164 39.9577 43.458 39.9577 41.1247C39.9577 38.7914 38.791 37.9164 34.7077 37.333C28.5827 36.458 25.666 34.708 25.666 29.7497C25.666 25.958 28.5827 23.0414 32.666 22.458V18.958C32.666 18.3747 33.2493 17.7914 33.8327 17.7914H36.166C36.7493 17.7914 37.3327 18.3747 37.3327 18.958V22.458C40.8327 23.0414 43.166 25.083 43.7493 28.2914C43.7493 28.8747 43.4577 29.458 42.8743 29.458H40.541C39.9577 29.458 39.666 29.1664 39.3743 28.583C38.791 26.5414 37.3327 25.6664 34.7077 25.6664C31.791 25.6664 30.3327 27.1247 30.3327 29.1664C30.3327 31.208 31.2077 32.3747 35.5827 32.958C41.7077 33.833 44.6243 35.583 44.6243 40.5414C44.6243 44.333 41.7077 47.5414 37.3327 48.4164V51.9164Z" fill="white"/>
  <path d="M42.8748 60.3753C41.9998 60.667 41.4165 60.0836 41.4165 59.2086V57.167C41.4165 56.5836 41.7082 56.0003 42.2915 55.7086C50.7498 52.5003 56.5832 44.6253 56.5832 35.292C56.5832 25.9586 50.4582 17.792 42.2915 14.8753C41.7082 14.5836 41.4165 14.0003 41.4165 13.417V11.3753C41.4165 10.5003 41.9998 10.2086 42.8748 10.2086C53.3748 13.7086 61.2498 23.6253 61.2498 35.292C61.2498 46.9586 53.6665 56.8753 42.8748 60.3753Z" fill="white"/>
</svg>
