<svg width="20" height="20" viewBox="0 0 20 20" fill="none" xmlns="http://www.w3.org/2000/svg">
  <circle cx="10" cy="10" r="10" fill="#27A17B"/>
  <path d="M16.0056 10.2283C16.0056 9.47453 13.9545 8.84563 11.2289 8.70053L11.2287 7.49951H14.6319V5H5.326V7.49951H8.72899V8.70641C6.05301 8.86145 4.05127 9.48379 4.05127 10.2283C4.05127 10.9729 6.05301 11.5953 8.72899 11.7501V16.0629H11.2287V11.756C13.9545 11.6112 16.0056 10.9821 16.0056 10.2283ZM10.0284 10.9709C7.1028 10.9709 4.73107 10.5181 4.73107 9.95918C4.73107 9.48596 6.43172 9.08867 8.72899 8.97813V9.26297H8.72926V10.4302C9.14343 10.4535 9.57871 10.4656 10.0284 10.4656C10.4424 10.4656 10.8446 10.4551 11.2289 10.4358V8.97379C13.576 9.07756 15.3258 9.47903 15.3258 9.95918C15.3257 10.5181 12.954 10.9709 10.0284 10.9709Z" fill="white"/>
</svg>
