<?xml version="1.0" encoding="utf-8"?>
<svg width="20" height="20" viewBox="0 0 20 20" fill="none" xmlns="http://www.w3.org/2000/svg">
  <path d="M10 20C15.5228 20 20 15.5228 20 10C20 4.47715 15.5228 0 10 0C4.47715 0 0 4.47715 0 10C0 15.5228 4.47715 20 10 20Z" fill="#3A3A3A"/>
  <path fill-rule="evenodd" clip-rule="evenodd" d="M 9.771 15 C 9.648 14.987 9.526 14.976 9.403 14.961 C 8.743 14.883 8.106 14.672 7.529 14.341 C 7.521 14.337 7.513 14.33 7.496 14.319 C 8.499 13.569 9.497 12.823 10.501 12.073 L 10.803 12.367 C 10.971 12.532 11.14 12.695 11.305 12.861 C 11.346 12.902 11.376 12.902 11.424 12.877 C 11.923 12.628 12.35 12.254 12.664 11.791 L 12.712 11.719 C 12.726 11.735 12.739 11.749 12.75 11.763 C 13.099 12.228 13.447 12.692 13.797 13.155 C 13.828 13.195 13.824 13.219 13.792 13.255 C 12.981 14.176 11.974 14.744 10.76 14.938 C 10.607 14.962 10.452 14.971 10.298 14.988 C 10.278 14.99 10.257 14.996 10.237 15 L 9.771 15 Z M 10.212 5 C 10.297 5.009 10.382 5.018 10.467 5.025 C 11.183 5.094 11.853 5.306 12.477 5.662 C 12.486 5.667 12.494 5.674 12.509 5.685 L 9.455 7.875 C 9.415 7.837 9.376 7.8 9.337 7.763 C 9.123 7.554 8.907 7.345 8.694 7.134 C 8.66 7.1 8.634 7.097 8.591 7.118 C 8.082 7.369 7.648 7.749 7.332 8.22 L 7.287 8.288 L 6.165 6.794 C 6.278 6.674 6.382 6.554 6.496 6.444 C 7.233 5.724 8.109 5.266 9.124 5.082 C 9.32 5.047 9.519 5.035 9.717 5.012 C 9.739 5.01 9.762 5.004 9.783 5 L 10.212 5 L 10.212 5 Z M 5.663 7.515 L 7.933 10.492 L 7.475 10.962 C 7.361 11.079 7.248 11.197 7.132 11.312 C 7.099 11.345 7.097 11.37 7.117 11.41 C 7.368 11.918 7.748 12.352 8.219 12.669 C 8.235 12.679 8.251 12.689 8.266 12.7 C 8.268 12.702 8.27 12.707 8.278 12.722 L 6.796 13.834 C 5.909 13.071 5.334 12.13 5.103 10.99 C 4.856 9.769 5.056 8.615 5.663 7.515 L 5.663 7.515 Z M 12.106 9.502 L 12.524 9.069 C 12.64 8.948 12.754 8.825 12.874 8.708 C 12.911 8.671 12.91 8.643 12.889 8.6 C 12.636 8.085 12.252 7.646 11.775 7.328 C 11.758 7.316 11.742 7.304 11.713 7.284 L 13.204 6.165 C 14.048 6.888 14.608 7.779 14.865 8.854 C 15.187 10.196 14.9 11.523 14.344 12.458 L 12.106 9.502 Z" fill="white"/>
</svg>