<svg width="70" height="70" viewBox="0 0 70 70" fill="none" xmlns="http://www.w3.org/2000/svg">
  <path d="M35 70C54.33 70 70 54.33 70 35C70 15.67 54.33 0 35 0C15.67 0 0 15.67 0 35C0 54.33 15.67 70 35 70Z" fill="#3A3A3A"/>
  <path fill-rule="evenodd" clip-rule="evenodd" d="M34.1992 52.5C33.7697 52.4554 33.3401 52.4157 32.9106 52.3648C30.601 52.0894 28.3706 51.3513 26.3526 50.1948C26.3224 50.1789 26.2953 50.155 26.2365 50.1152C29.7461 47.4902 33.2399 44.8811 36.7527 42.2561L37.8107 43.2854C38.3994 43.8614 38.9912 44.4309 39.5688 45.0148C39.7119 45.1579 39.8154 45.1564 39.9824 45.0704C41.7319 44.1972 43.2268 42.8876 44.3226 41.2682L44.4928 41.0168C44.5421 41.0741 44.5883 41.1202 44.6264 41.1711C45.8467 42.797 47.0654 44.4229 48.2904 46.0441C48.397 46.1841 48.3843 46.2668 48.2714 46.3941C45.4347 49.6173 41.9091 51.6027 37.6596 52.282C37.125 52.3679 36.5825 52.3998 36.0432 52.4586C35.9716 52.4666 35.9 52.4857 35.83 52.5H34.1992ZM35.7425 17.5C36.0384 17.5302 36.3359 17.562 36.6334 17.5891C39.1408 17.8277 41.4859 18.5707 43.6703 19.8164C43.7021 19.8354 43.7291 19.8577 43.7816 19.8959L33.0935 27.5625C32.9519 27.4289 32.8151 27.3016 32.6799 27.1695C31.9289 26.4377 31.1748 25.7075 30.4287 24.9693C30.3093 24.8516 30.2186 24.8389 30.0691 24.9136C28.2886 25.7923 26.7692 27.1218 25.6621 28.77L25.503 29.0086L21.5765 23.7777C21.9727 23.3577 22.3386 22.9393 22.7347 22.5527C25.3169 20.0343 28.3827 18.4323 31.9353 17.7879C32.6194 17.6639 33.3178 17.6225 34.0099 17.5414C34.0879 17.5334 34.1658 17.5143 34.2422 17.5H35.7409H35.7425ZM19.8201 26.3041L27.767 36.7214L26.1633 38.3664C25.7639 38.7752 25.3678 39.1889 24.9605 39.5914C24.846 39.7059 24.8412 39.7934 24.9112 39.9334C25.7886 41.7142 27.1178 43.2337 28.7661 44.3402C28.8218 44.3752 28.8775 44.4118 28.93 44.4516C28.9395 44.4579 28.9443 44.4739 28.9729 44.5279L23.7848 48.4193C20.6824 45.7482 18.6698 42.4566 17.8616 38.465C16.9961 34.1918 17.6977 30.1541 19.8217 26.3041H19.8201ZM42.372 33.2564L43.8326 31.7402C44.2398 31.317 44.6408 30.8891 45.0576 30.477C45.1881 30.3482 45.1865 30.2511 45.1101 30.0984C44.227 28.2962 42.8821 26.7603 41.2122 25.647C41.1534 25.6073 41.0961 25.5643 40.9959 25.4927L46.2126 21.5791C49.1671 24.1086 51.1287 27.2268 52.0292 30.9893C53.154 35.6857 52.1517 40.3311 50.2044 43.602L42.372 33.2564Z" fill="white"/>
</svg>
