<?xml version="1.0" standalone="no"?>
<!DOCTYPE svg PUBLIC "-//W3C//DTD SVG 20010904//EN"
 "http://www.w3.org/TR/2001/REC-SVG-20010904/DTD/svg10.dtd">
<svg version="1.0" xmlns="http://www.w3.org/2000/svg"
 width="1472.000000pt" height="1472.000000pt" viewBox="0 0 1472.000000 1472.000000"
 preserveAspectRatio="xMidYMid meet">
<g transform="translate(0.000000,1472.000000) scale(0.100000,-0.100000)"
fill="#000000" stroke="none">
<path d="M813 11559 c-44 -9 -95 -25 -112 -33 -16 -9 -35 -16 -41 -16 -32 0
-250 -173 -250 -198 0 -4 -11 -20 -25 -35 -14 -15 -22 -27 -18 -27 4 0 3 -4
-2 -8 -11 -8 -56 -99 -73 -147 -37 -105 -36 -22 -37 -4168 l0 -4027 30 -1 c35
-1 715 0 730 0 7 1 10 1314 10 3920 -1 2698 3 3918 10 3914 8 -5 87 -65 180
-136 5 -4 24 -19 40 -32 17 -14 33 -25 36 -25 3 0 17 -10 31 -22 50 -46 78
-68 86 -68 4 0 21 -14 39 -30 18 -17 36 -30 42 -30 5 0 11 -4 13 -8 2 -4 21
-21 43 -37 57 -43 76 -58 97 -77 10 -10 18 -15 18 -12 0 3 33 -21 73 -53 39
-32 99 -78 132 -103 33 -24 62 -46 65 -49 3 -4 26 -22 53 -41 46 -34 56 -41
114 -87 15 -13 75 -59 133 -102 58 -44 112 -87 121 -96 9 -8 21 -15 27 -15 5
0 12 -4 14 -8 2 -4 41 -37 88 -72 47 -36 87 -68 88 -72 2 -5 9 -8 16 -8 6 0
18 -9 26 -20 8 -11 20 -20 26 -20 7 0 14 -3 16 -7 2 -5 32 -30 68 -58 36 -27
68 -54 72 -60 4 -5 8 -7 8 -3 0 7 7 2 60 -43 10 -8 31 -24 45 -35 15 -10 41
-31 58 -46 18 -15 37 -28 44 -28 6 0 13 -4 15 -9 2 -5 44 -39 93 -77 50 -37
95 -72 100 -76 10 -9 108 -83 159 -121 15 -12 42 -33 60 -47 17 -14 76 -59
131 -100 102 -77 129 -97 149 -115 6 -5 74 -57 151 -115 77 -58 142 -107 145
-110 3 -3 32 -25 65 -50 33 -24 67 -50 75 -58 8 -7 49 -38 90 -70 41 -31 77
-60 78 -64 2 -5 8 -8 13 -8 5 0 17 -7 26 -15 10 -8 56 -44 103 -79 47 -36 94
-72 105 -81 41 -32 72 -55 150 -114 44 -33 91 -69 105 -80 48 -39 135 -106
195 -151 33 -25 62 -48 63 -52 2 -5 10 -8 17 -8 7 0 15 -3 17 -8 2 -4 23 -23
48 -42 25 -19 47 -37 50 -40 3 -3 35 -28 73 -55 37 -27 67 -52 67 -57 0 -4 5
-8 11 -8 6 0 41 -24 79 -52 l69 -53 1 -320 c0 -176 0 -1169 0 -2208 l0 -1887
22 -1 c13 0 185 -1 383 -1 l360 -1 1 49 c1 27 3 54 4 59 1 6 2 12 1 15 -7 17
-7 71 -1 75 5 3 6 50 0 50 -6 0 -4 57 2 61 5 3 5 10 1 17 -10 16 -11 57 -2 89
4 14 5 29 2 32 -9 9 -12 66 -3 71 6 3 6 38 0 55 -2 7 -2 203 0 215 1 6 1 12 0
15 -6 15 -5 69 1 92 4 14 5 29 2 32 -9 9 -12 66 -3 71 6 3 6 38 0 55 -2 7 -2
203 0 215 1 6 1 12 0 15 -6 15 -5 69 1 92 4 14 5 29 2 32 -9 9 -12 66 -3 71 5
3 6 50 0 50 -6 0 -5 65 1 87 4 14 5 29 1 32 -9 10 -9 60 0 73 5 6 5 14 -1 17
-6 4 -6 18 -1 35 4 16 6 32 2 35 -9 10 -9 60 0 73 5 6 5 14 -1 17 -6 4 -6 18
-1 35 4 16 6 32 2 35 -9 10 -9 60 0 73 5 6 5 14 -1 17 -6 4 -6 18 -1 35 4 16
6 32 2 35 -9 10 -9 60 0 73 5 6 5 14 -1 17 -6 4 -6 18 -1 35 4 16 6 32 2 35
-9 10 -9 60 0 73 5 6 5 14 -1 17 -6 4 -6 18 -1 35 4 16 6 32 2 35 -9 10 -9 60
0 73 5 6 5 14 -1 17 -6 4 -6 18 -1 35 4 16 6 32 2 35 -9 10 -9 60 0 73 5 6 5
14 -1 17 -6 4 -6 18 -1 35 4 16 6 32 3 35 -10 10 -11 66 -2 72 5 3 7 10 4 15
-6 8 -10 153 -5 174 1 6 1 12 0 15 -6 15 -5 69 1 92 4 14 5 29 2 32 -9 9 -12
66 -3 71 6 3 6 38 0 55 -2 7 -2 203 0 215 1 6 1 12 0 15 -6 15 -5 69 1 92 4
14 5 29 2 32 -9 9 -12 66 -3 71 6 3 6 38 0 55 -2 7 -2 203 0 215 1 6 1 12 0
15 -6 15 -5 69 1 92 4 14 5 29 2 32 -9 9 -12 66 -3 71 5 3 6 50 0 50 0 0 -3
65 -5 145 -2 80 -5 161 -8 180 -9 68 -72 226 -100 249 -10 7 -17 19 -17 27 0
15 -118 137 -169 174 -108 79 -181 135 -224 172 -18 15 -35 28 -39 28 -4 0
-13 6 -20 13 -7 6 -34 28 -58 47 -25 19 -46 38 -48 42 -2 4 -9 8 -16 8 -6 0
-19 8 -27 18 -9 9 -26 24 -39 32 -12 8 -35 24 -49 36 -14 11 -66 51 -116 89
-49 38 -93 73 -97 79 -4 6 -8 7 -8 3 0 -4 -11 2 -24 15 -14 13 -46 39 -73 58
-26 19 -50 37 -53 40 -3 3 -21 17 -40 30 -19 13 -37 27 -40 30 -3 3 -25 21
-50 40 -25 19 -46 38 -48 42 -2 5 -10 8 -17 8 -8 0 -18 6 -22 13 -4 6 -24 23
-43 36 -19 13 -42 30 -50 38 -15 13 -61 48 -116 88 -15 11 -33 26 -40 33 -7 6
-15 12 -18 12 -6 0 -46 32 -78 63 -10 9 -20 17 -23 17 -3 0 -38 25 -78 56 -89
69 -227 174 -361 276 -55 42 -108 83 -116 90 -8 8 -51 41 -95 73 -44 33 -82
62 -85 65 -3 3 -61 48 -130 99 -69 51 -130 100 -136 107 -6 8 -15 14 -19 14
-4 0 -29 18 -55 40 -26 22 -51 40 -55 40 -4 0 -15 8 -24 18 -9 10 -23 23 -32
28 -9 5 -32 21 -50 36 -19 15 -124 96 -234 180 -111 84 -207 159 -215 165 -8
7 -53 41 -100 75 -47 35 -91 69 -99 76 -8 8 -39 32 -70 55 -31 23 -60 45 -66
49 -10 8 -129 100 -150 115 -8 6 -145 111 -190 145 -5 4 -36 28 -67 53 -31 25
-61 45 -67 45 -6 0 -11 4 -11 9 0 4 -19 21 -42 37 -24 16 -45 32 -48 35 -3 4
-27 24 -55 44 -27 21 -51 42 -53 47 -2 4 -8 8 -14 8 -5 0 -33 19 -62 43 -29
23 -104 80 -166 127 -62 47 -118 90 -124 95 -34 32 -120 86 -176 112 -145 67
-297 85 -447 52z"/>
<path d="M13688 11575 c-2 -2 -22 -5 -45 -8 -84 -12 -266 -89 -309 -131 -12
-13 -38 -33 -164 -128 -52 -40 -96 -76 -98 -80 -2 -4 -9 -8 -16 -8 -6 0 -18
-9 -26 -19 -7 -11 -17 -18 -21 -16 -4 3 -9 -2 -13 -10 -3 -8 -12 -15 -20 -15
-8 0 -21 -8 -28 -18 -7 -10 -29 -29 -48 -42 -19 -13 -45 -33 -57 -44 -12 -12
-24 -20 -27 -18 -4 1 -14 -6 -24 -15 -29 -28 -64 -56 -102 -83 -19 -13 -37
-27 -40 -30 -3 -3 -52 -41 -110 -85 -58 -44 -155 -118 -216 -165 -62 -47 -124
-94 -139 -104 -14 -11 -36 -28 -48 -39 -12 -10 -34 -26 -49 -35 -16 -9 -28
-20 -28 -24 0 -4 -12 -14 -27 -22 -16 -8 -40 -25 -55 -38 -56 -48 -69 -58 -77
-58 -5 0 -11 -4 -13 -8 -3 -8 -55 -49 -386 -300 -54 -41 -106 -81 -117 -90
-11 -10 -36 -28 -55 -42 -19 -13 -37 -27 -40 -30 -3 -3 -41 -32 -85 -65 -44
-33 -85 -64 -92 -70 -27 -22 -44 -35 -183 -140 -80 -61 -147 -112 -150 -115
-3 -3 -32 -25 -65 -50 -33 -25 -65 -49 -71 -55 -7 -5 -24 -19 -40 -30 -15 -11
-33 -26 -40 -32 -7 -7 -17 -13 -22 -13 -6 0 -12 -3 -14 -8 -1 -4 -28 -26 -58
-49 -30 -23 -64 -49 -75 -58 -11 -8 -67 -51 -125 -95 -58 -44 -112 -86 -121
-94 -8 -7 -42 -32 -75 -56 -32 -24 -61 -46 -64 -50 -3 -3 -21 -17 -40 -30 -19
-14 -42 -30 -50 -37 -20 -16 -160 -124 -295 -227 -33 -25 -64 -49 -70 -53 -5
-5 -30 -24 -55 -42 -25 -19 -51 -41 -57 -50 -7 -8 -13 -11 -13 -7 0 6 -71 -47
-130 -97 -16 -13 -98 -76 -246 -186 -54 -41 -104 -80 -110 -87 -6 -8 -16 -14
-22 -14 -6 0 -12 -4 -14 -8 -1 -4 -46 -40 -98 -79 -52 -40 -119 -94 -148 -120
-64 -58 -144 -175 -167 -243 -1 -3 -7 -18 -13 -33 -7 -16 -12 -34 -12 -41 0
-7 -3 -16 -7 -19 -6 -7 -7 -14 -17 -129 -3 -36 -6 -70 -7 -75 -1 -4 0 -10 1
-13 6 -17 5 -67 -2 -77 -5 -6 -5 -14 1 -17 6 -4 6 -18 1 -35 -4 -16 -6 -32 -2
-35 9 -10 9 -60 0 -73 -5 -6 -5 -14 1 -17 6 -4 6 -18 1 -35 -4 -16 -6 -32 -2
-35 9 -10 9 -60 0 -73 -5 -6 -5 -14 1 -17 6 -4 6 -18 1 -35 -4 -16 -6 -32 -2
-35 9 -10 9 -60 0 -73 -5 -6 -5 -14 1 -17 6 -4 6 -18 1 -35 -4 -16 -6 -32 -2
-35 9 -10 9 -60 0 -73 -5 -6 -5 -14 1 -17 6 -4 6 -18 1 -35 -4 -16 -6 -32 -3
-35 9 -9 12 -66 3 -71 -5 -3 -6 -50 0 -50 6 0 5 -65 -1 -87 -4 -14 -5 -29 -2
-32 9 -9 12 -66 3 -71 -6 -3 -6 -38 0 -55 2 -7 2 -203 0 -215 -1 -5 -1 -12 0
-15 6 -15 5 -69 -1 -92 -4 -14 -5 -29 -2 -32 9 -9 12 -66 3 -71 -6 -3 -6 -38
0 -55 2 -7 2 -203 0 -215 -1 -5 -1 -12 0 -15 6 -15 5 -69 -1 -92 -4 -14 -5
-29 -2 -32 9 -9 12 -66 3 -71 -5 -3 -6 -50 0 -50 6 0 5 -65 -1 -87 -4 -14 -5
-29 -1 -32 9 -10 9 -60 0 -73 -5 -6 -5 -14 1 -17 6 -4 6 -18 1 -35 -4 -16 -6
-32 -2 -35 9 -10 9 -60 0 -73 -5 -6 -5 -14 1 -17 6 -4 6 -18 1 -35 -4 -16 -6
-32 -2 -35 9 -10 9 -60 0 -73 -5 -6 -5 -14 1 -17 6 -4 6 -18 1 -35 -4 -16 -6
-32 -3 -35 10 -10 11 -66 2 -72 -5 -3 -7 -10 -4 -15 6 -8 10 -153 5 -174 -1
-5 -1 -12 0 -15 6 -15 5 -69 -1 -92 -4 -14 -5 -29 -2 -32 9 -9 12 -66 3 -71
-6 -3 -6 -37 0 -55 2 -7 2 -363 0 -375 -1 -5 -1 -12 0 -15 6 -15 5 -69 -1 -92
-4 -14 -5 -29 -2 -32 9 -9 12 -66 3 -71 -6 -3 -6 -38 0 -55 2 -7 2 -203 0
-215 -1 -5 -1 -14 0 -20 1 -8 1 -93 -1 -170 -1 -42 5 -105 10 -106 3 0 175 -1
381 -1 l375 -2 2 2204 2 2203 28 27 c15 14 55 46 88 70 33 24 62 46 65 50 3 3
28 22 55 41 28 18 55 39 60 45 8 9 40 33 100 76 5 4 26 20 45 36 19 16 62 48
95 73 33 24 65 49 71 54 6 6 23 19 38 30 29 21 290 221 341 260 25 20 61 47
120 92 6 5 37 28 70 53 33 25 66 51 75 57 8 7 71 56 140 108 69 52 135 104
146 115 12 11 25 20 28 20 3 0 39 26 79 58 40 31 86 66 101 77 15 11 42 32 59
47 18 15 35 28 39 28 4 0 18 11 32 25 14 14 30 25 35 25 6 0 14 6 18 13 4 8
22 22 38 33 17 10 32 21 35 24 3 4 73 58 155 120 83 63 153 119 157 125 4 5 8
6 8 1 0 -6 6 -3 13 6 6 8 62 53 122 99 61 46 166 126 235 178 69 52 127 97
130 100 3 3 21 17 40 30 19 14 39 30 43 38 4 7 13 13 18 13 9 0 87 56 99 71 3
4 34 28 70 55 36 26 67 51 68 56 2 4 10 8 17 8 7 0 15 3 17 8 2 4 28 26 58 49
30 24 60 46 65 51 6 4 69 52 140 107 72 54 194 148 273 209 79 61 151 116 160
121 9 6 21 16 25 23 4 6 12 12 17 12 6 0 18 8 28 18 11 9 32 26 47 37 16 11
33 25 39 30 6 6 45 35 86 65 41 30 77 57 80 61 3 4 39 32 80 62 41 31 80 60
85 64 6 5 28 22 50 38 22 17 43 34 46 39 4 4 9 4 11 0 3 -5 4 -1768 4 -3917
-1 -2237 3 -3911 8 -3914 11 -7 741 -7 753 0 10 6 10 8015 -1 8077 -18 107
-92 280 -138 321 -10 9 -18 19 -18 22 0 25 -213 187 -246 187 -8 0 -14 4 -14
8 0 5 -6 9 -12 10 -7 0 -44 10 -83 22 -58 17 -245 35 -257 25z"/>
</g>
</svg>
