<svg width="25" height="20" viewBox="0 0 30 18" fill="none" xmlns="http://www.w3.org/2000/svg">
<path fill-rule="evenodd" clip-rule="evenodd" d="M15 15.7083C13.4077 17.1334 11.3051 18 9 18C4.02944 18 0 13.9706 0 9C0 4.02944 4.02944 0 9 0C11.3051 0 13.4077 0.866561 15 2.29168C16.5923 0.866561 18.6949 0 21 0C25.9706 0 30 4.02944 30 9C30 13.9706 25.9706 18 21 18C18.6949 18 16.5923 17.1334 15 15.7083ZM13.6662 14.218C12.4278 15.3262 10.7926 16 9 16C5.13401 16 2 12.866 2 9C2 5.13401 5.13401 2 9 2C10.7926 2 12.4278 2.67381 13.6662 3.78198C12.6171 5.2538 12 7.05484 12 9C12 10.9452 12.6171 12.7462 13.6662 14.218ZM16.3338 3.78198C17.5722 2.67381 19.2074 2 21 2C24.866 2 28 5.13401 28 9C28 12.866 24.866 16 21 16C19.2074 16 17.5722 15.3262 16.3338 14.218C17.3829 12.7462 18 10.9452 18 9C18 7.05484 17.3829 5.2538 16.3338 3.78198ZM15 5.39242C15.6348 6.44596 16 7.68033 16 9C16 10.3197 15.6348 11.554 15 12.6076C14.3652 11.554 14 10.3197 14 9C14 7.68033 14.3652 6.44596 15 5.39242Z" fill="white"/>
</svg>
