<svg width="26" height="26" viewBox="0 0 26 26" fill="none" xmlns="http://www.w3.org/2000/svg">
<circle cx="13.0713" cy="12.9285" r="11.8" stroke="#708390" stroke-width="1.4"/>
<mask id="mask0" mask-type="alpha" maskUnits="userSpaceOnUse" x="8" y="7" width="11" height="11">
<path fill-rule="evenodd" clip-rule="evenodd" d="M8.02441 7.88477H18.1121V17.9725H8.02441V7.88477Z" fill="white"/>
</mask>
<g mask="url(#mask0)">
<path fill-rule="evenodd" clip-rule="evenodd" d="M13.4645 12.9286L18.03 8.36309C18.081 8.31237 18.1121 8.24232 18.1121 8.16498C18.1121 8.0103 17.9869 7.88477 17.8319 7.88477C17.7549 7.88477 17.6848 7.91615 17.6338 7.96687L13.0683 12.5324L8.50274 7.96687C8.45202 7.91615 8.38197 7.88477 8.30463 7.88477C8.14967 7.88477 8.02441 8.0103 8.02441 8.16498C8.02441 8.24232 8.05552 8.31237 8.10652 8.36337L12.672 12.9286L8.10652 17.4942C8.05552 17.5449 8.02441 17.6149 8.02441 17.6923C8.02441 17.8472 8.14967 17.9725 8.30463 17.9725C8.38197 17.9725 8.45202 17.9411 8.50274 17.8904L13.0683 13.3248L17.6338 17.8904C17.6848 17.9411 17.7549 17.9725 17.8319 17.9725C17.9869 17.9725 18.1121 17.8472 18.1121 17.6923C18.1121 17.6149 18.081 17.5449 18.03 17.4942L13.4645 12.9286Z" fill="black" stroke="#708390"/>
</g>
</svg>
