<svg width="13" height="13" viewBox="0 0 13 13" fill="none" xmlns="http://www.w3.org/2000/svg">
<mask id="mask0" mask-type="alpha" maskUnits="userSpaceOnUse" x="0" y="0" width="14" height="13">
<path fill-rule="evenodd" clip-rule="evenodd" d="M0.00012207 0H13.0001V13H0.00012207V0Z" fill="white"/>
</mask>
<g mask="url(#mask0)">
<path fill-rule="evenodd" clip-rule="evenodd" d="M7.01073 6.5L12.8943 0.616417C12.96 0.551056 13.0001 0.460778 13.0001 0.361111C13.0001 0.161778 12.8387 0 12.639 0C12.5397 0 12.4494 0.0404444 12.3837 0.105806L6.50012 5.98939L0.616539 0.105806C0.551178 0.0404444 0.4609 0 0.361233 0C0.161539 0 0.00012207 0.161778 0.00012207 0.361111C0.00012207 0.460778 0.0402054 0.551056 0.105928 0.616778L5.98951 6.5L0.105928 12.3836C0.0402054 12.4489 0.00012207 12.5392 0.00012207 12.6389C0.00012207 12.8386 0.161539 13 0.361233 13C0.4609 13 0.551178 12.9596 0.616539 12.8942L6.50012 7.01061L12.3837 12.8942C12.4494 12.9596 12.5397 13 12.639 13C12.8387 13 13.0001 12.8386 13.0001 12.6389C13.0001 12.5392 12.96 12.4489 12.8943 12.3836L7.01073 6.5Z" fill="white" stroke="white"/>
</g>
</svg>
