<svg xmlns="http://www.w3.org/2000/svg">
<path d="M11.6267 1.80307L10.2549 0.384426C10.0168 0.138284 9.69401 1.82021e-06 9.35739 0L4.80619 0C4.1052 0 3.53696 0.587617 3.53696 1.3125V2.625H1.42157C0.720589 2.625 0.152344 3.21262 0.152344 3.9375V12.6875C0.152344 13.4124 0.720589 14 1.42157 14H7.34465C8.04564 14 8.61388 13.4124 8.61388 12.6875V11.375H10.7293C11.4303 11.375 11.9985 10.7874 11.9985 10.0625V2.73115C11.9985 2.38305 11.8648 2.04921 11.6267 1.80307ZM7.186 12.6875H1.58023C1.53815 12.6875 1.4978 12.6702 1.46804 12.6394C1.43829 12.6087 1.42157 12.5669 1.42157 12.5234V4.10156C1.42157 4.05805 1.43829 4.01632 1.46804 3.98555C1.4978 3.95478 1.53815 3.9375 1.58023 3.9375H3.53696V10.0625C3.53696 10.7874 4.1052 11.375 4.80619 11.375H7.34465V12.5234C7.34465 12.5669 7.32794 12.6087 7.29818 12.6394C7.26843 12.6702 7.22808 12.6875 7.186 12.6875ZM10.5706 10.0625H4.96484C4.92277 10.0625 4.88241 10.0452 4.85266 10.0144C4.82291 9.98368 4.80619 9.94195 4.80619 9.89844V1.47656C4.80619 1.43305 4.82291 1.39132 4.85266 1.36055C4.88241 1.32979 4.92277 1.3125 4.96484 1.3125H7.76773V3.71875C7.76773 4.08119 8.05185 4.375 8.40234 4.375H10.7293V9.89844C10.7293 9.94195 10.7126 9.98368 10.6828 10.0144C10.653 10.0452 10.6127 10.0625 10.5706 10.0625ZM10.7293 3.0625H9.03696V1.3125H9.29165C9.33372 1.3125 9.37407 1.32978 9.40385 1.36054L10.6828 2.68311C10.6975 2.69834 10.7092 2.71643 10.7172 2.73634C10.7252 2.75624 10.7293 2.77758 10.7293 2.79912V3.0625Z" fill="#447AFB"/>
</svg>
