<svg width="21" height="21" viewBox="0 0 21 21" fill="none" xmlns="http://www.w3.org/2000/svg">
<path opacity="0.5" fill-rule="evenodd" clip-rule="evenodd" d="M11.2463 10.5L19.8454 1.90092C19.9414 1.80539 20 1.67344 20 1.52778C20 1.23644 19.7641 1 19.4722 1C19.3271 1 19.1951 1.05911 19.0991 1.15464L10.5 9.75372L1.90092 1.15464C1.80539 1.05911 1.67344 1 1.52778 1C1.23592 1 1 1.23644 1 1.52778C1 1.67344 1.05858 1.80539 1.15464 1.90144L9.75372 10.5L1.15464 19.0991C1.05858 19.1946 1 19.3266 1 19.4722C1 19.7641 1.23592 20 1.52778 20C1.67344 20 1.80539 19.9409 1.90092 19.8454L10.5 11.2463L19.0991 19.8454C19.1951 19.9409 19.3271 20 19.4722 20C19.7641 20 20 19.7641 20 19.4722C20 19.3266 19.9414 19.1946 19.8454 19.0991L11.2463 10.5Z" fill="#EBEBEB" stroke="#8D8EA7"/>
</svg>
