<svg width="12" height="12" viewBox="0 0 12 12" fill="none" xmlns="http://www.w3.org/2000/svg">
<path d="M7.35484 6L11.7097 1.67742C11.9032 1.48387 12 1.22581 12 0.967742C12 0.709677 11.871 0.483871 11.7097 0.322581C11.2903 -0.0322581 10.6774 -0.0322581 10.3548 0.322581L6 4.64516L1.67742 0.290323C1.48387 0.0967742 1.22581 0 0.967742 0C0.709677 0 0.483871 0.129032 0.322581 0.290323C0.16129 0.483871 0.0645161 0.709677 0.0645161 0.967742C0.0645161 1.25806 0.16129 1.48387 0.354839 1.64516L4.64516 6L0.290323 10.3226C0.0967742 10.5161 0 10.7742 0 11.0323C0 11.2903 0.129032 11.5161 0.290323 11.6774C0.483871 11.8387 0.709677 11.9355 0.967742 11.9355C1.22581 11.9355 1.48387 11.8387 1.64516 11.6452L6 7.35484L10.3226 11.7097C10.5161 11.9032 10.7419 12 11 12H11.0323C11.2903 12 11.5161 11.871 11.6774 11.7097C12.0323 11.3226 12.0323 10.7097 11.7097 10.3548L7.35484 6Z" fill="#9FAFB9"/>
</svg>
