<?xml version="1.0" encoding="utf-8"?>
<svg viewBox="5 7.5 50 42.632" width="50" height="42.632" xmlns="http://www.w3.org/2000/svg">
  <path fill-rule="evenodd" clip-rule="evenodd" d="M10.9915 7.5H28.2336C38.7214 7.5 46.6714 13.1371 49.6289 21.3399H55V26.2978H50.76C50.843 27.0812 50.8854 27.8794 50.8854 28.6904V28.8121C50.8854 29.7251 50.8318 30.6226 50.7269 31.5017H55V36.4596H49.5267C46.4913 44.5482 38.6029 50.1316 28.2336 50.1316H10.9915V36.4596H5V31.5017H10.9915V26.2978H5V21.3399H10.9915V7.5ZM15.8117 36.4596V45.684H28.2336C35.8991 45.684 41.5941 41.9895 44.2452 36.4596H15.8117ZM45.7219 31.5017H15.8117V26.2978H45.7296C45.8405 27.1167 45.8971 27.9562 45.8971 28.8121V28.9339C45.8971 29.8096 45.8379 30.6669 45.7219 31.5017ZM28.2336 11.9402C35.9344 11.9402 41.6465 15.7322 44.2816 21.3399H15.8117V11.9402H28.2336Z" fill="#F4B731"/>
</svg>