<svg
width="24"
height="18"
viewBox="0 0 24 18"
version="1.1"
xmlns="http://www.w3.org/2000/svg"
className="imtoken-icon"
>
<g
id="Page-1"
stroke="none"
stroke-width="1"
fill="none"
fill-rule="evenodd"
>
<g
id="imToken-Official-Website-_-Home-_-World-renowned-digital-asset-management-tool,-supporting-Bitcoin,-Ethereum,-EOS,-and-other-blockchains.-0"
transform="translate(-1.000000, 0.000000)"
fill="#FFFFFF"
fill-rule="nonzero"
>
<path d="M24.915,1.124 C25.706,11.838 18.819,16.902 12.645,17.442 C6.905,17.944 1.502,14.417 1.028,8.998 C0.637,4.521 3.404,2.615 5.578,2.425 C7.814,2.229 9.693,3.771 9.856,5.638 C10.013,7.433 8.893,8.25 8.114,8.318 C7.498,8.372 6.723,7.998 6.653,7.195 C6.593,6.505 6.855,6.411 6.791,5.678 C6.677,4.373 5.539,4.221 4.916,4.275 C4.162,4.341 2.794,5.221 2.986,7.413 C3.179,9.624 5.299,11.371 8.078,11.128 C11.077,10.866 13.165,8.531 13.322,5.256 C13.320579,5.08253866 13.3570983,4.91086388 13.429,4.753 L13.43,4.749 C13.4623122,4.68040376 13.5001012,4.61452375 13.543,4.552 C13.607,4.456 13.689,4.35 13.795,4.234 C13.796,4.231 13.796,4.231 13.798,4.231 C13.8859421,4.13343854 13.9776794,4.03936615 14.073,3.949 C15.383,2.713 20.101,-0.202 24.563,0.721 C24.756657,0.762516594 24.8999047,0.926518901 24.915,1.124" id="Shape"/>
</g>
</g>
</svg>