<?xml version="1.0" encoding="utf-8"?>
<!-- Generator: Adobe Illustrator 21.1.0, SVG Export Plug-In . SVG Version: 6.00 Build 0)  -->
<svg version="1.1" id="图层_1" xmlns="http://www.w3.org/2000/svg" xmlns:xlink="http://www.w3.org/1999/xlink" x="0px" y="0px"
	 viewBox="0 0 894 768" style="enable-background:new 0 0 894 768; transform: scale(6)" xml:space="preserve">
<style type="text/css">
	.st0{fill:url(#path-1-copy-7_1_);}
	.st1{fill:#FFFFFF;}
</style>
<g id="Group" transform="translate(0.000000, 2.937600)">
	<g id="icon_imTokenLogo">

			<linearGradient id="path-1-copy-7_1_" gradientUnits="userSpaceOnUse" x1="-229.262" y1="763.8824" x2="-230.6285" y2="762.525" gradientTransform="matrix(134.3987 0 0 -134.8504 31348.6973 103302.0312)">
			<stop  offset="0" style="stop-color:#11C4D1"/>
			<stop  offset="1" style="stop-color:#0062AD"/>
		</linearGradient>
		<path id="path-1-copy-7" class="st0" d="M541.5,416.1c0,0,0,19.8-2.1,28.3c-2.1,8.6-6.1,14.5-10.4,18.9c-4.4,4.4-10.2,8.4-19,10.5
			c-8.9,2.1-28.1,2-28.1,2l-69.8,0c0,0-19.7,0-28.2-2.1c-8.5-2.2-14.5-6.1-18.9-10.5c-4.4-4.4-8.4-10.2-10.4-19.1
			c-2.1-8.9-2-28.1-2-28.1v-70c0,0,0-19.8,2.1-28.3c2.1-8.6,6.1-14.5,10.4-18.9c4.4-4.4,10.2-8.4,19-10.5c8.9-2.1,28.1-2,28.1-2
			l69.8,0c0,0,19.7,0,28.2,2.1c8.5,2.2,14.5,6.1,18.9,10.5s8.4,10.2,10.4,19.1s2,28.1,2,28.1V416.1z"/>
		<path id="Combined-Shape" class="st1" d="M511.9,344.2c3.9,53.9-31.9,79.5-64,82.3c-29.8,2.6-57.8-15-60.2-42.3
			c-2-22.5,12.4-32.2,23.7-33.1c11.6-1,21.3,6.7,22.2,16.1c0.8,9-5,13.2-9.1,13.5c-3.2,0.3-7.2-1.6-7.6-5.6
			c-0.3-3.5,1.1-3.9,0.7-7.6c-0.6-6.6-6.5-7.3-9.7-7c-3.9,0.3-11,4.8-10.1,15.8c1,11.1,12,19.9,26.4,18.6
			c15.6-1.4,26.5-13.1,27.3-29.6c0-0.9,0.2-1.7,0.6-2.5c0,0,0,0,0,0c0.2-0.3,0.3-0.6,0.6-0.9c0,0,0,0,0,0c0.4-0.6,0.8-1.1,1.3-1.6
			c0,0,0,0,0,0c0.4-0.4,0.9-0.9,1.4-1.4c6.8-6.2,31.4-21,54.5-16.4c0.2,0,0.4,0.1,0.5,0.2C511.3,342.7,511.8,343.4,511.9,344.2"/>
	</g>
</g>
</svg>
