<svg width="17" height="17" viewBox="0 0 22 22" fill="none" xmlns="http://www.w3.org/2000/svg">
  <path d="M18.5219 0H8.37065V13.5793H21.9945V3.53305C22 1.62553 20.4357 0 18.5219 0ZM5.25315 0H3.55018C1.63641 0 0 1.55366 0 3.53858V5.23599H5.25315V0ZM0 8.41518H5.25315V13.6512H0V8.41518ZM16.7468 21.9945H18.4498C20.3636 21.9945 22 20.4408 22 18.4559V16.764H16.7468V21.9945ZM8.37065 16.764H13.6238V22H8.37065V16.764ZM0 16.764V18.4614C0 20.3689 1.55875 22 3.55018 22H5.25315V16.764H0Z" fill="black"/>
</svg>
