<svg width="23" height="23" viewBox="0 0 32 32" fill="none" xmlns="http://www.w3.org/2000/svg">
<g clip-path="url(#clip0)">
<path d="M27.4819 3.25708L17.5366 10.7177L19.3642 6.3072L27.4819 3.25708Z" fill="#E2761B"/>
<path d="M4.51709 3.25708L14.3774 10.7893L12.6349 6.3072L4.51709 3.25708Z" fill="#E4761B"/>
<path d="M23.8978 20.5697L21.2485 24.6652L26.9154 26.2403L28.5446 20.6556L23.8978 20.5697Z" fill="#E4761B"/>
<path d="M3.45459 20.6556L5.08381 26.2403L10.7507 24.6652L8.10141 20.5697L3.45459 20.6556Z" fill="#E4761B"/>
<path d="M10.4251 13.6389L8.85254 16.0447L14.4769 16.3024L14.2785 10.1879L10.4251 13.6389Z" fill="#E4761B"/>
<path d="M21.5601 13.6389L17.6641 10.1162L17.5366 16.3024L23.1468 16.0446L21.5601 13.6389Z" fill="#E4761B"/>
<path d="M10.751 24.6652L14.1228 23.0041L11.2043 20.6986L10.751 24.6652Z" fill="#E4761B"/>
<path d="M17.8628 23.0041L21.2487 24.6652L20.7812 20.6986L17.8628 23.0041Z" fill="#E4761B"/>
<path d="M21.2487 24.6651L17.8628 23.004L18.132 25.2379L18.1036 26.183L21.2487 24.6651Z" fill="#D7C1B3"/>
<path d="M10.751 24.6651L13.8961 26.183L13.8819 25.2379L14.1228 23.004L10.751 24.6651Z" fill="#D7C1B3"/>
<path d="M13.9526 19.2237L11.1333 18.3789L13.1167 17.4624L13.9526 19.2237Z" fill="#233447"/>
<path d="M18.0327 19.2237L18.8686 17.4624L20.8661 18.3789L18.0327 19.2237Z" fill="#233447"/>
<path d="M10.7508 24.6652L11.2325 20.5697L8.10156 20.6556L10.7508 24.6652Z" fill="#CD6116"/>
<path d="M20.7671 20.5697L21.2488 24.6652L23.898 20.6556L20.7671 20.5697Z" fill="#CD6116"/>
<path d="M23.1468 16.0447L17.5366 16.3024L18.0466 19.2237L18.8825 17.4623L20.8801 18.3788L23.1468 16.0447Z" fill="#CD6116"/>
<path d="M11.1334 18.3788L13.131 17.4623L13.9527 19.2237L14.4769 16.3024L8.85254 16.0447L11.1334 18.3788Z" fill="#CD6116"/>
<path d="M8.85254 16.0447L11.2043 20.6986L11.1334 18.3788L8.85254 16.0447Z" fill="#E4751F" stroke="#E4751F" stroke-width="0.07" stroke-linecap="round" stroke-linejoin="round"/>
<path d="M20.8804 18.3788L20.7812 20.6986L23.1472 16.0447L20.8804 18.3788Z" fill="#E4751F" stroke="#E4751F" stroke-width="0.07" stroke-linecap="round" stroke-linejoin="round"/>
<path d="M14.4768 16.3024L13.9526 19.2236L14.6043 22.6747L14.7602 18.1353L14.4768 16.3024Z" fill="#E4751F"/>
<path d="M17.5368 16.3024L17.2676 18.121L17.3809 22.6747L18.0468 19.2236L17.5368 16.3024Z" fill="#E4751F"/>
<path d="M18.0467 19.2237L17.3809 22.6747L17.8625 23.0041L20.781 20.6986L20.8801 18.3788L18.0467 19.2237Z" fill="#F6851B"/>
<path d="M11.1333 18.3788L11.2041 20.6986L14.1226 23.0041L14.6042 22.6747L13.9526 19.2237L11.1333 18.3788Z" fill="#F6851B"/>
<path d="M18.1037 26.1832L18.132 25.2381L17.877 25.009H14.1086L13.8819 25.2381L13.8961 26.1832L10.751 24.6653L11.856 25.5818L14.0803 27.1426H17.9054L20.1438 25.5818L21.2488 24.6653L18.1037 26.1832Z" fill="#C0AD9E"/>
<path d="M17.8628 23.004L17.3811 22.6747H14.6044L14.1227 23.004L13.8818 25.2379L14.1085 25.0088H17.877L18.132 25.2379L17.8628 23.004Z" fill="#161616"/>
<path d="M27.8931 11.2046L28.7573 7.08047L27.4823 3.25708L17.8628 10.4743L21.5604 13.6389L26.7881 15.1855L27.9498 13.8108L27.4539 13.4528L28.2473 12.7082L27.6381 12.2213L28.4315 11.6055L27.8931 11.2046Z" fill="#763D16"/>
<path d="M3.25635 7.08047L4.10638 11.2046L3.55386 11.6055L4.36138 12.2213L3.7522 12.7082L4.54556 13.4528L4.04971 13.8108L5.19724 15.1855L10.4249 13.6389L14.1225 10.4743L4.51722 3.25708L3.25635 7.08047Z" fill="#763D16"/>
<path d="M26.7881 15.1855L21.5604 13.6389L23.1472 16.0446L20.7812 20.6986L23.898 20.6556H28.5448L26.7881 15.1855Z" fill="#F6851B"/>
<path d="M10.4248 13.6389L5.19715 15.1855L3.45459 20.6556H8.10141L11.204 20.6986L8.85227 16.0446L10.4248 13.6389Z" fill="#F6851B"/>
<path d="M17.5366 16.3025L17.8624 10.4743L19.3783 6.30725H12.6348L14.1223 10.4743L14.4765 16.3025L14.604 18.1354V22.6748H17.3808L17.3949 18.1354L17.5366 16.3025Z" fill="#F6851B"/>
</g>
<defs>
<clipPath id="clip0">
<rect x="3.19971" y="3.19983" width="25.6" height="24" fill="white"/>
</clipPath>
</defs>
</svg>
