<svg width="15" height="16" viewBox="0 0 15 16" fill="none" xmlns="http://www.w3.org/2000/svg">
<path fill-rule="evenodd" clip-rule="evenodd" d="M0 4C0 1.79086 1.79086 0 4 0H5V2H4C2.89543 2 2 2.89543 2 4V14H0V4Z" fill="black"/>
<path fill-rule="evenodd" clip-rule="evenodd" d="M6 2C6 1.44772 6.44772 1 7 1H11C11.5523 1 12 1.44772 12 2V3H13C14.1046 3 15 3.89543 15 5V14C15 15.1046 14.1046 16 13 16H3V5C3 3.89543 3.89543 3 5 3H6V2ZM7 6C6.44772 6 6 5.55228 6 5H5V14L13 14V5H12C12 5.55228 11.5523 6 11 6H7ZM10 3H8V4H10V3Z" fill="black"/>
</svg>
