<svg width="25" height="25" viewBox="0 0 25 25" fill="none" xmlns="http://www.w3.org/2000/svg">
<circle cx="12.5713" cy="12.4285" r="11.3" stroke="#708390" stroke-width="1.4"/>
<path d="M13.5311 13.7302V14.392H11.6402V13.8247C11.6402 13.2575 11.7347 12.5011 12.3965 11.8393C13.0584 11.1775 13.9093 10.7047 13.9093 9.85382C13.9093 9.00291 13.2475 8.53019 12.5856 8.53019C11.3565 8.53019 11.262 9.85382 11.1675 10.1375H9.37109C9.37109 8.81382 9.93837 6.82837 12.5856 6.82837C14.8547 6.82837 15.8002 8.3411 15.8002 9.66473C15.8002 11.9338 13.5311 12.312 13.5311 13.7302Z" fill="#708390"/>
<path d="M12.5851 17.2286C13.1073 17.2286 13.5306 16.8053 13.5306 16.2831C13.5306 15.7609 13.1073 15.3376 12.5851 15.3376C12.0629 15.3376 11.6396 15.7609 11.6396 16.2831C11.6396 16.8053 12.0629 17.2286 12.5851 17.2286Z" fill="#708390"/>
</svg>
