<svg width="37" height="37" viewBox="0 0 37 37" fill="none" xmlns="http://www.w3.org/2000/svg">
<circle cx="18.5" cy="18.5" r="18.5" fill="#F6F8F9"/>
<path d="M13.5592 23.0639C13.5592 23.3962 13.2898 23.6657 12.9574 23.6657C12.625 23.6657 12.3556 23.3962 12.3556 23.0639L12.3556 14.304L9.55317 17.1065C9.31816 17.3415 8.93713 17.3415 8.70212 17.1065C8.4671 16.8714 8.4671 16.4904 8.70212 16.2554L12.9574 12.0001L17.2127 16.2554C17.4477 16.4904 17.4477 16.8714 17.2127 17.1065C16.9777 17.3415 16.5967 17.3415 16.3616 17.1065L13.5592 14.304L13.5592 23.0639Z" fill="#31424E"/>
<path d="M23.2609 12.9361C23.2609 12.6038 23.5303 12.3343 23.8627 12.3343C24.195 12.3343 24.4645 12.6038 24.4645 12.9361L24.4645 21.696L27.2669 18.8935C27.5019 18.6585 27.8829 18.6585 28.118 18.8935C28.353 19.1286 28.353 19.5096 28.118 19.7446L23.8627 23.9999L19.6074 19.7446C19.3724 19.5096 19.3724 19.1286 19.6074 18.8935C19.8424 18.6585 20.2234 18.6585 20.4584 18.8935L23.2609 21.696L23.2609 12.9361Z" fill="#31424E"/>
</svg>
