<svg width="15" height="21" viewBox="0 0 12 18" fill="none" xmlns="http://www.w3.org/2000/svg">
<path d="M5.84158 0C3.51668 0 1.63517 1.8962 1.63517 4.23926V5.8281C0.81876 5.97705 0 6.17566 0 6.43337V14.7251C0 14.7251 0 14.9545 0.255716 15.0632C1.18239 15.4415 4.8281 16.7419 5.66563 17.0398C5.77355 17.08 5.80404 17.08 5.8322 17.08C5.87208 17.08 5.89085 17.08 5.99876 17.0398C6.83629 16.7419 10.4914 15.4415 11.4181 15.0632C11.655 14.9639 11.6644 14.7346 11.6644 14.7346V6.43337C11.6644 6.17566 10.8574 5.9676 10.0386 5.8281V4.23926C10.0503 1.8962 8.1571 0 5.84158 0ZM5.84158 2.02624C7.21165 2.02624 8.0398 2.86085 8.0398 4.24163V5.6224C6.50316 5.51364 5.19173 5.51364 3.64571 5.6224V4.24163C3.64571 2.85849 4.47385 2.02624 5.84158 2.02624ZM5.8322 7.65574C7.7442 7.65574 9.34887 7.80469 9.34887 8.07186V13.245C9.34887 13.3254 9.33949 13.3349 9.26911 13.3633C9.20107 13.394 6.00815 14.5549 6.00815 14.5549C6.00815 14.5549 5.87912 14.5951 5.84158 14.5951C5.8017 14.5951 5.67501 14.5454 5.67501 14.5454C5.67501 14.5454 2.48208 13.3845 2.41405 13.3538C2.34602 13.3231 2.33429 13.3136 2.33429 13.2356V8.0624C2.31552 7.79523 3.92019 7.65574 5.8322 7.65574Z" fill="black"/>
</svg>
