<svg
  width="19"
  height="18"
  viewBox="0 0 19 18"
  fill="none"
  xmlns="http://www.w3.org/2000/svg"
>
  <rect x="-245" y="-191" width="714" height="584" fill="none" />
  <path
    d="M4.29289 14.1924C3.90237 13.8019 3.90237 13.1687 4.29289 12.7782L12.7782 4.29289C13.1687 3.90237 13.8019 3.90237 14.1924 4.29289C14.5829 4.68342 14.5829 5.31658 14.1924 5.70711L5.70711 14.1924C5.31658 14.5829 4.68342 14.5829 4.29289 14.1924Z"
    fill="#E67002"
  />
  <path
    d="M14.1924 14.1924C13.8019 14.5829 13.1687 14.5829 12.7782 14.1924L4.29289 5.70711C3.90237 5.31658 3.90237 4.68342 4.29289 4.29289C4.68342 3.90237 5.31658 3.90237 5.70711 4.29289L14.1924 12.7782C14.5829 13.1687 14.5829 13.8019 14.1924 14.1924Z"
    fill="#E67002"
  />
</svg>
