<svg width="28" height="18" viewBox="0 0 28 18" fill="none" xmlns="http://www.w3.org/2000/svg">
<path d="M6.12825 3.3971C10.4759 -1.08972 17.5249 -1.08972 21.8725 3.3971L22.3958 3.93709C22.6132 4.16143 22.6132 4.52516 22.3958 4.7495L20.6059 6.59672C20.4972 6.70889 20.3209 6.70889 20.2123 6.59672L19.4922 5.85362C16.4592 2.72351 11.5416 2.72351 8.50859 5.85362L7.73748 6.64942C7.62879 6.76159 7.45256 6.76159 7.34387 6.64942L5.55394 4.8022C5.33656 4.57786 5.33656 4.21413 5.55394 3.98979L6.12825 3.3971ZM25.5743 7.21734L27.1673 8.86137C27.3847 9.08571 27.3847 9.44944 27.1673 9.67378L19.9842 17.0869C19.7668 17.3113 19.4144 17.3113 19.197 17.0869C19.197 17.0869 19.197 17.0869 19.197 17.0869L14.0988 11.8256C14.0445 11.7695 13.9564 11.7695 13.902 11.8256C13.902 11.8256 13.902 11.8256 13.902 11.8256L8.80399 17.0869C8.58661 17.3113 8.23416 17.3113 8.01678 17.0869C8.01678 17.0869 8.01677 17.0869 8.01677 17.0869L0.833448 9.67369C0.616064 9.44935 0.616064 9.08562 0.833448 8.86128L2.42649 7.21725C2.64387 6.9929 2.99632 6.9929 3.2137 7.21725L8.31192 12.4786C8.36627 12.5347 8.45438 12.5347 8.50873 12.4786C8.50873 12.4786 8.50873 12.4786 8.50873 12.4786L13.6067 7.21725C13.8241 6.9929 14.1765 6.99289 14.3939 7.21723C14.3939 7.21723 14.3939 7.21723 14.3939 7.21724L19.4921 12.4786C19.5465 12.5347 19.6346 12.5347 19.6889 12.4786L24.7871 7.21734C25.0045 6.993 25.3569 6.993 25.5743 7.21734Z" fill="#5399F5"/>
</svg>
