<svg width="48" height="48" viewBox="0 0 48 48" fill="none" xmlns="http://www.w3.org/2000/svg">
<path fill-rule="evenodd" clip-rule="evenodd" d="M48 48C34.7452 48 24 37.2548 24 24C24 10.7452 34.7452 0 48 0V13C41.9249 13 37 17.9249 37 24C37 30.0751 41.9249 35 48 35V48Z" fill="url(#paint0_linear_feat1)"/>
<path fill-rule="evenodd" clip-rule="evenodd" d="M0 48C13.2548 48 24 37.2548 24 24C24 10.7452 13.2548 0 0 0V13C6.07513 13 11 17.9249 11 24C11 30.0751 6.07513 35 0 35V48Z" fill="url(#paint1_linear_feat1)"/>
<defs>
<linearGradient id="paint0_linear_feat1" x1="43" y1="48" x2="43" y2="-9.49118e-07" gradientUnits="userSpaceOnUse">
<stop stop-color="#FFFD80"/>
<stop offset="1" stop-color="#FFCF58"/>
</linearGradient>
<linearGradient id="paint1_linear_feat1" x1="24" y1="0" x2="24" y2="48" gradientUnits="userSpaceOnUse">
<stop stop-color="#F8EE12"/>
<stop offset="1" stop-color="#FEB23F"/>
<stop offset="1" stop-color="#FEC062"/>
</linearGradient>
</defs>
</svg>
