<svg width="40" height="32" viewBox="0 0 40 32" fill="none" xmlns="http://www.w3.org/2000/svg">
    <path d="M25 22.1802V15.7867C25 8.72473 30.7249 2.99985 37.7869 2.99985V2.99985" stroke="#D6EDAA" stroke-width="6" stroke-linejoin="round"/>
    <path d="M22 29C22 30.6569 23.3431 32 25 32H37C38.6569 32 40 30.6569 40 29V18C40 16.3431 38.6569 15 37 15H22V29Z" fill="#D6EDAA"/>
    <path d="M3 22.1802V15.7867C3 8.72473 8.72488 2.99985 15.7869 2.99985V2.99985" stroke="#D6EDAA" stroke-width="6" stroke-linejoin="round"/>
    <path d="M0 29C0 30.6569 1.34315 32 3 32H15C16.6569 32 18 30.6569 18 29V18C18 16.3431 16.6569 15 15 15H0V29Z" fill="#D6EDAA"/>
</svg>
