<svg width="150" height="200" viewBox="230 40 40 140" fill="none" xmlns="http://www.w3.org/2000/svg">
<path d="M218.856 184.889H212.085V203.308H206.647V184.889H200V180.676H218.856V184.889Z" fill="#3375BB"/>
<path d="M229.546 195.319H226.602V203.308H221.164V180.676H230.042C232.717 180.676 234.809 181.272 236.317 182.464C237.825 183.656 238.579 185.34 238.579 187.516C238.579 189.091 238.259 190.397 237.618 191.433C236.988 192.469 235.996 193.308 234.643 193.951L239.353 203.075V203.308H233.528L229.546 195.319ZM226.602 191.106H230.042C231.075 191.106 231.849 190.837 232.366 190.298C232.893 189.749 233.156 188.987 233.156 188.013C233.156 187.039 232.893 186.277 232.366 185.728C231.839 185.169 231.064 184.889 230.042 184.889H226.602V191.106Z" fill="#3375BB"/>
<path d="M259.557 180.676V195.49C259.557 197.168 259.201 198.624 258.488 199.857C257.775 201.08 256.753 202.013 255.42 202.655C254.088 203.298 252.513 203.619 250.695 203.619C247.947 203.619 245.783 202.904 244.203 201.474C242.623 200.044 241.817 198.086 241.786 195.598V180.676H247.255V195.707C247.317 198.184 248.464 199.422 250.695 199.422C251.82 199.422 252.673 199.111 253.251 198.49C253.829 197.868 254.119 196.858 254.119 195.459V180.676H259.557Z" fill="#3375BB"/>
<path d="M274.601 197.293C274.601 196.495 274.317 195.873 273.749 195.428C273.191 194.982 272.205 194.521 270.79 194.044C269.375 193.567 268.218 193.106 267.319 192.661C264.396 191.22 262.934 189.241 262.934 186.723C262.934 185.469 263.296 184.366 264.019 183.412C264.752 182.448 265.785 181.702 267.118 181.174C268.45 180.635 269.948 180.366 271.611 180.366C273.232 180.366 274.684 180.656 275.964 181.236C277.256 181.816 278.258 182.645 278.97 183.723C279.683 184.79 280.039 186.013 280.039 187.391H274.617C274.617 186.469 274.332 185.754 273.764 185.246C273.207 184.739 272.447 184.485 271.487 184.485C270.516 184.485 269.746 184.702 269.178 185.138C268.621 185.562 268.342 186.106 268.342 186.77C268.342 187.35 268.652 187.878 269.271 188.355C269.891 188.821 270.981 189.308 272.54 189.816C274.1 190.314 275.381 190.852 276.383 191.433C278.82 192.842 280.039 194.785 280.039 197.262C280.039 199.241 279.296 200.795 277.808 201.925C276.321 203.054 274.281 203.619 271.688 203.619C269.86 203.619 268.202 203.293 266.715 202.64C265.238 201.977 264.122 201.075 263.368 199.935C262.625 198.785 262.253 197.464 262.253 195.972H267.706C267.706 197.184 268.016 198.08 268.636 198.661C269.266 199.231 270.284 199.516 271.688 199.516C272.587 199.516 273.294 199.324 273.811 198.94C274.338 198.547 274.601 197.997 274.601 197.293Z" fill="#3375BB"/>
<path d="M300.537 184.889H293.766V203.308H288.328V184.889H281.682V180.676H300.537V184.889Z" fill="#3375BB"/>
<path fill-rule="evenodd" clip-rule="evenodd" d="M247.613 47.9042C249.158 46.6986 251.316 46.6986 252.861 47.9042C269.34 60.7665 288.167 60.6628 295.275 60.6236C295.631 60.6216 295.957 60.6198 296.253 60.6198C297.401 60.6198 298.501 61.0842 299.307 61.9089C300.112 62.7336 300.555 63.8494 300.537 65.0061C300.203 85.6891 299.315 100.721 297.59 111.963C295.863 123.213 293.251 131.005 289.242 136.979C285.205 142.995 280.014 146.763 274.006 150.385C271.999 151.595 269.935 152.772 267.767 154.009C263.289 156.562 258.37 159.367 252.61 163.228C251.173 164.192 249.301 164.192 247.863 163.228C242.112 159.373 237.202 156.571 232.734 154.021C230.559 152.78 228.488 151.599 226.476 150.384C220.472 146.761 215.29 142.993 211.261 136.975C207.261 131.001 204.657 123.209 202.937 111.961C201.218 100.72 200.335 85.6885 200.001 65.0061C199.982 63.8494 200.425 62.7336 201.23 61.9089C202.036 61.0842 203.136 60.6198 204.284 60.6198C204.576 60.6198 204.9 60.6216 205.253 60.6236C212.304 60.6628 231.132 60.7675 247.613 47.9042ZM208.649 69.2529C209.032 87.549 209.897 100.781 211.405 110.646C213.031 121.276 215.359 127.659 218.364 132.148C221.341 136.593 225.238 139.575 230.879 142.979C232.595 144.014 234.506 145.106 236.59 146.296C240.571 148.57 245.178 151.202 250.237 154.478C255.306 151.196 259.922 148.561 263.91 146.284C265.987 145.099 267.894 144.01 269.606 142.978C275.254 139.573 279.16 136.591 282.144 132.144C285.156 127.655 287.491 121.273 289.122 110.644C290.636 100.779 291.505 87.5486 291.888 69.2534C283.155 69.1266 266.072 67.7875 250.237 56.6712C234.418 67.776 217.356 69.1238 208.649 69.2529Z" fill="#3375BB"/>
</svg>
