<svg width="40" height="32" viewBox="0 0 40 32" fill="none" xmlns="http://www.w3.org/2000/svg">
<path fill-rule="evenodd" clip-rule="evenodd" d="M6.03117 15H15C16.6569 15 18 16.3432 18 18V29C18 30.6569 16.6569 32 15 32H3C1.34315 32 0 30.6569 0 29V22.1803V15.7869V15H0.019268C0.429293 6.64672 7.33188 0 15.7869 0V6C10.6466 6 6.4319 9.96281 6.03117 15ZM22 22.1803V15.7869V15H22.0193C22.4293 6.64672 29.3319 0 37.7869 0V6C32.6466 6 28.4319 9.96281 28.0312 15H37C38.6569 15 40 16.3432 40 18V29C40 30.6569 38.6569 32 37 32H25C23.3431 32 22 30.6569 22 29V22.1803Z" fill="#C6E3E0"/>
</svg>
